G04 #@! TF.FileFunction,Copper,L1,Top,Signal*
%FSLAX46Y46*%
G04 Gerber Fmt 4.6, Leading zero omitted, Abs format (unit mm)*
G04 Created by KiCad (PCBNEW 4.0.5+dfsg1-4) date Mon Feb 19 23:39:44 2018*
%MOMM*%
%LPD*%
G01*
G04 APERTURE LIST*
%ADD10C,0.100000*%
%ADD11R,2.032000X2.032000*%
%ADD12O,2.032000X2.032000*%
%ADD13O,4.000500X2.499360*%
%ADD14R,1.727200X1.727200*%
%ADD15O,1.727200X1.727200*%
%ADD16R,1.501140X2.499360*%
%ADD17R,7.000240X7.000240*%
%ADD18R,1.200000X0.900000*%
%ADD19C,5.999480*%
%ADD20R,5.000000X2.400000*%
%ADD21R,1.200000X0.750000*%
%ADD22R,0.750000X1.200000*%
%ADD23R,3.500000X1.600000*%
%ADD24R,3.200000X2.500000*%
%ADD25R,2.500000X3.200000*%
%ADD26R,0.800000X0.900000*%
%ADD27R,5.000000X4.500000*%
%ADD28R,4.500000X5.000000*%
%ADD29R,0.700000X1.200000*%
%ADD30R,4.500000X4.290000*%
%ADD31R,1.550000X1.600000*%
%ADD32R,1.550000X1.200000*%
%ADD33R,1.200000X0.700000*%
%ADD34R,4.290000X4.500000*%
%ADD35R,1.600000X1.550000*%
%ADD36R,1.200000X1.550000*%
%ADD37R,0.900000X1.200000*%
%ADD38R,2.500000X2.400000*%
%ADD39R,2.400000X2.500000*%
%ADD40R,0.700000X0.250000*%
%ADD41R,0.250000X0.700000*%
%ADD42R,1.725000X1.725000*%
%ADD43C,0.600000*%
%ADD44C,3.000000*%
%ADD45C,0.250000*%
%ADD46C,4.000000*%
%ADD47C,5.000000*%
%ADD48C,1.000000*%
%ADD49C,7.000000*%
%ADD50C,0.254000*%
G04 APERTURE END LIST*
D10*
D11*
X106500000Y-110750000D03*
D12*
X109040000Y-110750000D03*
D13*
X113401480Y-103400000D03*
X91400000Y-103400000D03*
D14*
X119000000Y-131000000D03*
D15*
X119000000Y-128460000D03*
X121540000Y-131000000D03*
X121540000Y-128460000D03*
X124080000Y-131000000D03*
X124080000Y-128460000D03*
X126620000Y-131000000D03*
X126620000Y-128460000D03*
X129160000Y-131000000D03*
X129160000Y-128460000D03*
X131700000Y-131000000D03*
X131700000Y-128460000D03*
X134240000Y-131000000D03*
X134240000Y-128460000D03*
X136780000Y-131000000D03*
X136780000Y-128460000D03*
X139320000Y-131000000D03*
X139320000Y-128460000D03*
X141860000Y-131000000D03*
X141860000Y-128460000D03*
X144400000Y-131000000D03*
X144400000Y-128460000D03*
X146940000Y-131000000D03*
X146940000Y-128460000D03*
X149480000Y-131000000D03*
X149480000Y-128460000D03*
X152020000Y-131000000D03*
X152020000Y-128460000D03*
X154560000Y-131000000D03*
X154560000Y-128460000D03*
X157100000Y-131000000D03*
X157100000Y-128460000D03*
D16*
X117274840Y-108898640D03*
X121826520Y-108898640D03*
D17*
X119550680Y-102000000D03*
D18*
X112550000Y-109500000D03*
X114750000Y-109500000D03*
X114750000Y-111500000D03*
X112550000Y-111500000D03*
D19*
X99350000Y-112000000D03*
X93000000Y-112000000D03*
X99350000Y-120000000D03*
X93000000Y-120000000D03*
X99350000Y-125000000D03*
X93000000Y-125000000D03*
X99350000Y-132500000D03*
X93000000Y-132500000D03*
D20*
X126500000Y-106750000D03*
X126500000Y-99750000D03*
X171750000Y-107000000D03*
X171750000Y-100000000D03*
X166000000Y-107000000D03*
X166000000Y-100000000D03*
D21*
X135200000Y-99500000D03*
X133300000Y-99500000D03*
X157400000Y-118750000D03*
X155500000Y-118750000D03*
X158000000Y-115750000D03*
X159900000Y-115750000D03*
D22*
X158850000Y-121600000D03*
X158850000Y-123500000D03*
D21*
X158100000Y-112750000D03*
X160000000Y-112750000D03*
D22*
X156000000Y-110400000D03*
X156000000Y-108500000D03*
D21*
X149100000Y-118750000D03*
X151000000Y-118750000D03*
X148400000Y-115500000D03*
X146500000Y-115500000D03*
D22*
X149500000Y-121600000D03*
X149500000Y-123500000D03*
D23*
X181000000Y-129000000D03*
X186400000Y-129000000D03*
X181000000Y-114500000D03*
X186400000Y-114500000D03*
X181000000Y-107250000D03*
X186400000Y-107250000D03*
X181000000Y-121750000D03*
X186400000Y-121750000D03*
D24*
X177750000Y-134500000D03*
X182050000Y-134500000D03*
X177750000Y-138250000D03*
X182050000Y-138250000D03*
D21*
X148450000Y-112750000D03*
X146550000Y-112750000D03*
D25*
X163250000Y-134250000D03*
X163250000Y-129950000D03*
D22*
X151000000Y-108550000D03*
X151000000Y-110450000D03*
D23*
X111250000Y-127000000D03*
X105850000Y-127000000D03*
X111250000Y-119750000D03*
X105850000Y-119750000D03*
X111250000Y-134250000D03*
X105850000Y-134250000D03*
D26*
X154950000Y-106750000D03*
X157050000Y-106750000D03*
X152000000Y-106750000D03*
X149900000Y-106750000D03*
D27*
X171750000Y-119000000D03*
X171750000Y-129500000D03*
D28*
X132000000Y-119500000D03*
X121500000Y-119500000D03*
D29*
X168160000Y-109600000D03*
X166890000Y-109600000D03*
X165610000Y-109600000D03*
X164340000Y-109600000D03*
X164340000Y-115400000D03*
X165610000Y-115400000D03*
X166890000Y-115400000D03*
X168160000Y-115400000D03*
D30*
X166250000Y-113000000D03*
D31*
X167340000Y-113750000D03*
X165160000Y-113750000D03*
D32*
X167340000Y-111750000D03*
X165160000Y-111750000D03*
D33*
X169850000Y-111500000D03*
X169850000Y-112770000D03*
X169850000Y-114050000D03*
X169850000Y-115320000D03*
X175650000Y-115320000D03*
X175650000Y-114050000D03*
X175650000Y-112770000D03*
X175650000Y-111500000D03*
D34*
X173250000Y-113410000D03*
D35*
X174000000Y-112320000D03*
X174000000Y-114500000D03*
D36*
X172000000Y-112320000D03*
X172000000Y-114500000D03*
D29*
X142820000Y-107600000D03*
X141550000Y-107600000D03*
X140270000Y-107600000D03*
X139000000Y-107600000D03*
X139000000Y-113400000D03*
X140270000Y-113400000D03*
X141550000Y-113400000D03*
X142820000Y-113400000D03*
D30*
X140910000Y-111000000D03*
D31*
X142000000Y-111750000D03*
X139820000Y-111750000D03*
D32*
X142000000Y-109750000D03*
X139820000Y-109750000D03*
D29*
X142820000Y-115100000D03*
X141550000Y-115100000D03*
X140270000Y-115100000D03*
X139000000Y-115100000D03*
X139000000Y-120900000D03*
X140270000Y-120900000D03*
X141550000Y-120900000D03*
X142820000Y-120900000D03*
D30*
X140910000Y-118500000D03*
D31*
X142000000Y-119250000D03*
X139820000Y-119250000D03*
D32*
X142000000Y-117250000D03*
X139820000Y-117250000D03*
D37*
X153500000Y-121800000D03*
X153500000Y-124000000D03*
X157000000Y-123750000D03*
X157000000Y-121550000D03*
D18*
X160950000Y-117250000D03*
X158750000Y-117250000D03*
D38*
X176500000Y-108800000D03*
X176500000Y-102500000D03*
D37*
X151250000Y-123700000D03*
X151250000Y-121500000D03*
D18*
X148500000Y-117000000D03*
X146300000Y-117000000D03*
D39*
X141750000Y-124500000D03*
X135450000Y-124500000D03*
D40*
X150850000Y-112850000D03*
X150850000Y-113350000D03*
X150850000Y-113850000D03*
X150850000Y-114350000D03*
X150850000Y-114850000D03*
X150850000Y-115350000D03*
X150850000Y-115850000D03*
X150850000Y-116350000D03*
D41*
X151500000Y-117000000D03*
X152000000Y-117000000D03*
X152500000Y-117000000D03*
X153000000Y-117000000D03*
X153500000Y-117000000D03*
X154000000Y-117000000D03*
X154500000Y-117000000D03*
X155000000Y-117000000D03*
D40*
X155650000Y-116350000D03*
X155650000Y-115850000D03*
X155650000Y-115350000D03*
X155650000Y-114850000D03*
X155650000Y-114350000D03*
X155650000Y-113850000D03*
X155650000Y-113350000D03*
X155650000Y-112850000D03*
D41*
X155000000Y-112200000D03*
X154500000Y-112200000D03*
X154000000Y-112200000D03*
X153500000Y-112200000D03*
X153000000Y-112200000D03*
X152500000Y-112200000D03*
X152000000Y-112200000D03*
X151500000Y-112200000D03*
D42*
X154112500Y-115462500D03*
X154112500Y-113737500D03*
X152387500Y-115462500D03*
X152387500Y-113737500D03*
D43*
X161000000Y-111500000D03*
X150000000Y-104500000D03*
D44*
X130750000Y-102000000D03*
D43*
X146500000Y-110500000D03*
D44*
X180500000Y-101500000D03*
X186000000Y-133750000D03*
D43*
X158500000Y-118750000D03*
X156500000Y-116000000D03*
X163250000Y-112250000D03*
X156170558Y-111670558D03*
X148750000Y-119750000D03*
X147500000Y-121250000D03*
X149750000Y-116000000D03*
X143750000Y-111750000D03*
X150750000Y-111750000D03*
X163250000Y-109375000D03*
X154625000Y-111054442D03*
X156750000Y-113375000D03*
X169500000Y-116000000D03*
X170250000Y-110000000D03*
X156750000Y-114725000D03*
X138250000Y-107750000D03*
X151858119Y-109721169D03*
X149750000Y-113375000D03*
X138000000Y-115000000D03*
X143750000Y-117250000D03*
X149750000Y-114725000D03*
X154000000Y-109750000D03*
D44*
X173750000Y-134500000D03*
X173750000Y-138500000D03*
D43*
X163500000Y-120250000D03*
X137250000Y-119750000D03*
X129750000Y-123000000D03*
X123500000Y-123000000D03*
D45*
X135200000Y-99500000D02*
X135425000Y-99500000D01*
X135425000Y-99500000D02*
X137750000Y-101825000D01*
X137750000Y-101825000D02*
X137750000Y-102000000D01*
X135425000Y-99500000D02*
X140270000Y-104345000D01*
X140270000Y-104345000D02*
X140270000Y-106750000D01*
X140270000Y-106750000D02*
X140270000Y-107600000D01*
D46*
X137750000Y-102000000D02*
X150000000Y-102000000D01*
X150000000Y-102000000D02*
X153000000Y-102000000D01*
D45*
X150000000Y-104500000D02*
X150000000Y-102000000D01*
D46*
X153000000Y-102000000D02*
X160000000Y-102000000D01*
D45*
X153000000Y-109824998D02*
X153000000Y-102000000D01*
X153000000Y-112200000D02*
X153000000Y-109824998D01*
D46*
X121826520Y-108898640D02*
X124351360Y-108898640D01*
X124351360Y-108898640D02*
X126500000Y-106750000D01*
X160000000Y-102000000D02*
X164799999Y-106799999D01*
X126500000Y-106750000D02*
X133000000Y-106750000D01*
X133000000Y-106750000D02*
X137750000Y-102000000D01*
X126500000Y-106750000D02*
X126500000Y-127816399D01*
X126500000Y-127816399D02*
X126620000Y-127936399D01*
D47*
X93000000Y-132500000D02*
X99350000Y-132500000D01*
D48*
X126500000Y-99750000D02*
X128500000Y-99750000D01*
X128500000Y-99750000D02*
X130750000Y-102000000D01*
X126500000Y-99750000D02*
X133050000Y-99750000D01*
X133050000Y-99750000D02*
X133300000Y-99500000D01*
D45*
X135450000Y-124500000D02*
X135450000Y-127250000D01*
X135450000Y-127250000D02*
X134240000Y-128460000D01*
X160000000Y-112750000D02*
X160000000Y-112500000D01*
X160000000Y-112750000D02*
X160000000Y-115650000D01*
X160000000Y-115650000D02*
X159900000Y-115750000D01*
X146550000Y-112750000D02*
X146550000Y-110550000D01*
X146550000Y-110550000D02*
X146500000Y-110500000D01*
X150850000Y-113850000D02*
X150425000Y-113850000D01*
X150425000Y-113850000D02*
X150275000Y-114000000D01*
X147025000Y-114350000D02*
X148125000Y-114350000D01*
X148125000Y-114350000D02*
X148250000Y-114225000D01*
X150850000Y-114350000D02*
X150625000Y-114350000D01*
X150625000Y-114350000D02*
X150275000Y-114000000D01*
X150275000Y-114000000D02*
X148475000Y-114000000D01*
X148475000Y-114000000D02*
X148250000Y-114225000D01*
D46*
X176500000Y-102500000D02*
X179500000Y-102500000D01*
X179500000Y-102500000D02*
X180500000Y-101500000D01*
X182050000Y-134500000D02*
X185250000Y-134500000D01*
X185250000Y-134500000D02*
X186000000Y-133750000D01*
D45*
X155650000Y-113850000D02*
X156299998Y-113850000D01*
X156299998Y-113850000D02*
X156449999Y-114000001D01*
X156449999Y-114000001D02*
X158524999Y-114000001D01*
X158524999Y-114000001D02*
X159775000Y-112750000D01*
X159775000Y-112750000D02*
X160000000Y-112750000D01*
X155650000Y-114350000D02*
X155875000Y-114350000D01*
X155875000Y-114350000D02*
X156125001Y-114099999D01*
X158024999Y-114099999D02*
X159675000Y-115750000D01*
X156125001Y-114099999D02*
X158024999Y-114099999D01*
X159675000Y-115750000D02*
X159900000Y-115750000D01*
X150850000Y-113850000D02*
X150625000Y-113850000D01*
X148250000Y-114225000D02*
X146775000Y-112750000D01*
X146775000Y-112750000D02*
X146550000Y-112750000D01*
X147025000Y-114350000D02*
X146500000Y-114875000D01*
X146500000Y-114875000D02*
X146500000Y-115500000D01*
X155650000Y-113850000D02*
X154225000Y-113850000D01*
X154225000Y-113850000D02*
X154112500Y-113737500D01*
X155650000Y-114350000D02*
X154725000Y-114350000D01*
X154725000Y-114350000D02*
X154112500Y-113737500D01*
X150850000Y-114350000D02*
X151775000Y-114350000D01*
X151775000Y-114350000D02*
X152387500Y-113737500D01*
X150850000Y-113850000D02*
X152275000Y-113850000D01*
X152275000Y-113850000D02*
X152387500Y-113737500D01*
X153000000Y-117000000D02*
X153000000Y-116075000D01*
X153000000Y-116075000D02*
X152387500Y-115462500D01*
X158500000Y-118750000D02*
X157400000Y-118750000D01*
X157400000Y-118750000D02*
X157625000Y-118750000D01*
X157625000Y-118750000D02*
X158850000Y-119975000D01*
X158850000Y-119975000D02*
X158850000Y-120750000D01*
X158850000Y-120750000D02*
X158850000Y-121600000D01*
X155000000Y-117000000D02*
X156275000Y-117000000D01*
X156275000Y-117000000D02*
X157400000Y-118125000D01*
X157400000Y-118125000D02*
X157400000Y-118750000D01*
X155500000Y-118750000D02*
X155725000Y-118750000D01*
X157000000Y-120700000D02*
X157000000Y-121550000D01*
X155725000Y-118750000D02*
X157000000Y-120025000D01*
X157000000Y-120025000D02*
X157000000Y-120700000D01*
X154500000Y-117000000D02*
X154500000Y-117750000D01*
X154500000Y-117750000D02*
X155500000Y-118750000D01*
X158000000Y-115750000D02*
X158000000Y-116500000D01*
X158000000Y-116500000D02*
X158750000Y-117250000D01*
X155650000Y-115350000D02*
X157600000Y-115350000D01*
X157600000Y-115350000D02*
X158000000Y-115750000D01*
X157000000Y-123750000D02*
X158600000Y-123750000D01*
X158600000Y-123750000D02*
X158850000Y-123500000D01*
X155650000Y-115850000D02*
X156350000Y-115850000D01*
X156350000Y-115850000D02*
X156500000Y-116000000D01*
X157050000Y-106750000D02*
X157050000Y-111675000D01*
X157050000Y-111675000D02*
X155875000Y-112850000D01*
X155875000Y-112850000D02*
X155650000Y-112850000D01*
X157875000Y-112750000D02*
X158100000Y-112750000D01*
X158100000Y-112750000D02*
X155750000Y-112750000D01*
X155750000Y-112750000D02*
X155650000Y-112850000D01*
X163250000Y-112250000D02*
X164660000Y-112250000D01*
X164660000Y-112250000D02*
X165160000Y-111750000D01*
X156000000Y-110400000D02*
X156000000Y-111500000D01*
X156000000Y-111500000D02*
X156170558Y-111670558D01*
X160950000Y-117250000D02*
X162740000Y-117250000D01*
X162740000Y-117250000D02*
X164340000Y-115650000D01*
X164340000Y-115650000D02*
X164340000Y-115400000D01*
X165160000Y-113725000D02*
X165160000Y-113750000D01*
X155000000Y-112200000D02*
X156000000Y-111200000D01*
X156000000Y-111200000D02*
X156000000Y-110400000D01*
X164500000Y-114750000D02*
X166250000Y-113000000D01*
X156000000Y-108500000D02*
X156000000Y-108725000D01*
X154000000Y-110725000D02*
X154000000Y-111600000D01*
X156000000Y-108725000D02*
X154000000Y-110725000D01*
X154000000Y-111600000D02*
X154000000Y-112200000D01*
X154950000Y-106750000D02*
X154950000Y-107450000D01*
X154950000Y-107450000D02*
X156000000Y-108500000D01*
X149500000Y-121600000D02*
X149500000Y-120500000D01*
X149500000Y-120500000D02*
X148750000Y-119750000D01*
X148750000Y-119750000D02*
X148750000Y-119100000D01*
X148750000Y-119100000D02*
X149100000Y-118750000D01*
X149500000Y-121600000D02*
X147850000Y-121600000D01*
X147850000Y-121600000D02*
X147500000Y-121250000D01*
X151500000Y-117000000D02*
X150225000Y-117000000D01*
X149100000Y-118125000D02*
X149100000Y-118750000D01*
X150225000Y-117000000D02*
X149100000Y-118125000D01*
X151000000Y-118750000D02*
X151000000Y-121250000D01*
X151000000Y-121250000D02*
X151250000Y-121500000D01*
X152000000Y-117000000D02*
X152000000Y-117750000D01*
X152000000Y-117750000D02*
X151000000Y-118750000D01*
X148500000Y-117000000D02*
X148500000Y-115600000D01*
X148500000Y-115600000D02*
X148400000Y-115500000D01*
X150850000Y-115350000D02*
X149400000Y-115350000D01*
X149400000Y-115350000D02*
X149250000Y-115500000D01*
X149250000Y-115500000D02*
X148400000Y-115500000D01*
X151250000Y-123700000D02*
X149700000Y-123700000D01*
X149700000Y-123700000D02*
X149500000Y-123500000D01*
X150850000Y-115850000D02*
X149900000Y-115850000D01*
X149900000Y-115850000D02*
X149750000Y-116000000D01*
X149900000Y-106750000D02*
X149900000Y-112125000D01*
X149900000Y-112125000D02*
X150625000Y-112850000D01*
X150625000Y-112850000D02*
X150850000Y-112850000D01*
X148450000Y-112750000D02*
X150750000Y-112750000D01*
X150750000Y-112750000D02*
X150850000Y-112850000D01*
X151000000Y-108550000D02*
X151625000Y-108550000D01*
X151625000Y-108550000D02*
X152500000Y-109425000D01*
X152500000Y-109425000D02*
X152500000Y-111600000D01*
X152500000Y-111600000D02*
X152500000Y-112200000D01*
X151625000Y-108550000D02*
X152000000Y-108175000D01*
X152000000Y-107450000D02*
X152000000Y-106750000D01*
X152000000Y-108175000D02*
X152000000Y-107450000D01*
X143750000Y-111750000D02*
X142000000Y-111750000D01*
X151000000Y-110450000D02*
X151000000Y-111500000D01*
X151000000Y-111500000D02*
X150750000Y-111750000D01*
X146300000Y-117000000D02*
X144470000Y-117000000D01*
X144470000Y-117000000D02*
X142820000Y-115350000D01*
X142820000Y-115350000D02*
X142820000Y-115100000D01*
X151000000Y-110450000D02*
X151000000Y-110225000D01*
X151500000Y-112200000D02*
X151500000Y-110950000D01*
X151500000Y-110950000D02*
X151000000Y-110450000D01*
X163250000Y-109375000D02*
X164115000Y-109375000D01*
X164115000Y-109375000D02*
X164340000Y-109600000D01*
X154500000Y-112200000D02*
X154500000Y-111179442D01*
X154500000Y-111179442D02*
X154625000Y-111054442D01*
X156750000Y-113375000D02*
X155675000Y-113375000D01*
X155675000Y-113375000D02*
X155650000Y-113350000D01*
X169850000Y-115320000D02*
X169850000Y-115650000D01*
X169850000Y-115650000D02*
X169500000Y-116000000D01*
X170250000Y-110000000D02*
X172000000Y-111750000D01*
X172000000Y-111750000D02*
X172000000Y-112320000D01*
X155650000Y-114850000D02*
X156625000Y-114850000D01*
X156625000Y-114850000D02*
X156750000Y-114725000D01*
X172000000Y-114675000D02*
X172000000Y-114500000D01*
X138250000Y-107750000D02*
X138850000Y-107750000D01*
X138850000Y-107750000D02*
X139000000Y-107600000D01*
X152000000Y-112200000D02*
X152000000Y-109863050D01*
X152000000Y-109863050D02*
X151858119Y-109721169D01*
X149750000Y-113375000D02*
X150825000Y-113375000D01*
X150825000Y-113375000D02*
X150850000Y-113350000D01*
X139000000Y-115100000D02*
X138100000Y-115100000D01*
X138100000Y-115100000D02*
X138000000Y-115000000D01*
X143750000Y-117250000D02*
X142000000Y-117250000D01*
X150850000Y-114850000D02*
X149875000Y-114850000D01*
X149875000Y-114850000D02*
X149750000Y-114725000D01*
X141015000Y-118500000D02*
X140910000Y-118500000D01*
X153500000Y-112200000D02*
X153500000Y-110250000D01*
X153500000Y-110250000D02*
X154000000Y-109750000D01*
X153500000Y-121800000D02*
X153500000Y-117000000D01*
X171750000Y-129500000D02*
X171750000Y-127000000D01*
X171750000Y-127000000D02*
X165000000Y-120250000D01*
X165000000Y-120250000D02*
X163500000Y-120250000D01*
X137250000Y-119750000D02*
X134000000Y-123000000D01*
X134000000Y-123000000D02*
X129750000Y-123000000D01*
X121500000Y-119500000D02*
X121500000Y-122250000D01*
X121500000Y-122250000D02*
X122250000Y-123000000D01*
X122250000Y-123000000D02*
X123500000Y-123000000D01*
D46*
X113401480Y-103400000D02*
X118150680Y-103400000D01*
X118150680Y-103400000D02*
X119550680Y-102000000D01*
D48*
X113401480Y-103400000D02*
X112550000Y-104251480D01*
X112550000Y-104251480D02*
X112550000Y-109500000D01*
D49*
X93000000Y-112000000D02*
X93000000Y-105000000D01*
X99350000Y-112000000D02*
X93000000Y-112000000D01*
D45*
X109040000Y-110750000D02*
X110476840Y-110750000D01*
X111226840Y-111500000D02*
X111700000Y-111500000D01*
X110476840Y-110750000D02*
X111226840Y-111500000D01*
X111700000Y-111500000D02*
X112550000Y-111500000D01*
X114750000Y-109500000D02*
X116673480Y-109500000D01*
X116673480Y-109500000D02*
X117274840Y-108898640D01*
X114750000Y-111500000D02*
X114750000Y-109500000D01*
D47*
X93000000Y-120000000D02*
X99350000Y-120000000D01*
X93000000Y-125000000D02*
X99350000Y-125000000D01*
X99350000Y-125000000D02*
X99350000Y-120000000D01*
X93000000Y-125000000D02*
X93000000Y-120000000D01*
D50*
G36*
X106743000Y-120150000D02*
X106723000Y-120150000D01*
X106723000Y-121026250D01*
X106881750Y-121185000D01*
X107373000Y-121185000D01*
X107373000Y-125565000D01*
X106881750Y-125565000D01*
X106723000Y-125723750D01*
X106723000Y-126600000D01*
X106743000Y-126600000D01*
X106743000Y-127400000D01*
X106723000Y-127400000D01*
X106723000Y-128276250D01*
X106881750Y-128435000D01*
X107373000Y-128435000D01*
X107373000Y-132815000D01*
X106881750Y-132815000D01*
X106723000Y-132973750D01*
X106723000Y-133850000D01*
X106743000Y-133850000D01*
X106743000Y-134650000D01*
X106723000Y-134650000D01*
X106723000Y-135526250D01*
X106881750Y-135685000D01*
X107373000Y-135685000D01*
X107373000Y-140290000D01*
X91069931Y-140290000D01*
X90511660Y-140178953D01*
X90097669Y-139902333D01*
X89821046Y-139488338D01*
X89710000Y-138930069D01*
X89710000Y-138393109D01*
X90014657Y-138393109D01*
X90316218Y-139122943D01*
X90874120Y-139681819D01*
X91603427Y-139984654D01*
X92393109Y-139985343D01*
X93122943Y-139683782D01*
X93681819Y-139125880D01*
X93984654Y-138396573D01*
X93985343Y-137606891D01*
X93683782Y-136877057D01*
X93125880Y-136318181D01*
X92718372Y-136148969D01*
X93008089Y-136205940D01*
X94410728Y-135926937D01*
X94813795Y-135548404D01*
X97536205Y-135548404D01*
X97939272Y-135926937D01*
X99358089Y-136205940D01*
X100760728Y-135926937D01*
X101163795Y-135548404D01*
X100424142Y-134808750D01*
X103465000Y-134808750D01*
X103465000Y-135176310D01*
X103561673Y-135409699D01*
X103740302Y-135588327D01*
X103973691Y-135685000D01*
X104818250Y-135685000D01*
X104977000Y-135526250D01*
X104977000Y-134650000D01*
X103623750Y-134650000D01*
X103465000Y-134808750D01*
X100424142Y-134808750D01*
X99350000Y-133734608D01*
X97536205Y-135548404D01*
X94813795Y-135548404D01*
X93000000Y-133734608D01*
X91186205Y-135548404D01*
X91589272Y-135926937D01*
X92037265Y-136015033D01*
X91606891Y-136014657D01*
X90877057Y-136316218D01*
X90318181Y-136874120D01*
X90015346Y-137603427D01*
X90014657Y-138393109D01*
X89710000Y-138393109D01*
X89710000Y-134056540D01*
X89951596Y-134313795D01*
X91765392Y-132500000D01*
X94234608Y-132500000D01*
X96048404Y-134313795D01*
X96175000Y-134178994D01*
X96301596Y-134313795D01*
X98115392Y-132500000D01*
X100584608Y-132500000D01*
X102398404Y-134313795D01*
X102776937Y-133910728D01*
X102892374Y-133323690D01*
X103465000Y-133323690D01*
X103465000Y-133691250D01*
X103623750Y-133850000D01*
X104977000Y-133850000D01*
X104977000Y-132973750D01*
X104818250Y-132815000D01*
X103973691Y-132815000D01*
X103740302Y-132911673D01*
X103561673Y-133090301D01*
X103465000Y-133323690D01*
X102892374Y-133323690D01*
X103055940Y-132491911D01*
X102776937Y-131089272D01*
X102398404Y-130686205D01*
X100584608Y-132500000D01*
X98115392Y-132500000D01*
X96301596Y-130686205D01*
X96175000Y-130821006D01*
X96048404Y-130686205D01*
X94234608Y-132500000D01*
X91765392Y-132500000D01*
X89951596Y-130686205D01*
X89710000Y-130943460D01*
X89710000Y-128627000D01*
X91495287Y-128627000D01*
X92215496Y-128926057D01*
X92327826Y-128926155D01*
X91589272Y-129073063D01*
X91186205Y-129451596D01*
X93000000Y-131265392D01*
X94813795Y-129451596D01*
X94410728Y-129073063D01*
X93669609Y-128927326D01*
X93777650Y-128927420D01*
X94504721Y-128627000D01*
X97845287Y-128627000D01*
X98565496Y-128926057D01*
X98677826Y-128926155D01*
X97939272Y-129073063D01*
X97536205Y-129451596D01*
X99350000Y-131265392D01*
X101163795Y-129451596D01*
X100760728Y-129073063D01*
X100019609Y-128927326D01*
X100127650Y-128927420D01*
X100854722Y-128627000D01*
X103000000Y-128627000D01*
X103049410Y-128616994D01*
X103091035Y-128588553D01*
X103118315Y-128546159D01*
X103127000Y-128500000D01*
X103127000Y-127558750D01*
X103465000Y-127558750D01*
X103465000Y-127926310D01*
X103561673Y-128159699D01*
X103740302Y-128338327D01*
X103973691Y-128435000D01*
X104818250Y-128435000D01*
X104977000Y-128276250D01*
X104977000Y-127400000D01*
X103623750Y-127400000D01*
X103465000Y-127558750D01*
X103127000Y-127558750D01*
X103127000Y-126143473D01*
X103155976Y-126073690D01*
X103465000Y-126073690D01*
X103465000Y-126441250D01*
X103623750Y-126600000D01*
X104977000Y-126600000D01*
X104977000Y-125723750D01*
X104818250Y-125565000D01*
X103973691Y-125565000D01*
X103740302Y-125661673D01*
X103561673Y-125840301D01*
X103465000Y-126073690D01*
X103155976Y-126073690D01*
X103276057Y-125784504D01*
X103277420Y-124222350D01*
X103127000Y-123858306D01*
X103127000Y-121143473D01*
X103276057Y-120784504D01*
X103276472Y-120308750D01*
X103465000Y-120308750D01*
X103465000Y-120676310D01*
X103561673Y-120909699D01*
X103740302Y-121088327D01*
X103973691Y-121185000D01*
X104818250Y-121185000D01*
X104977000Y-121026250D01*
X104977000Y-120150000D01*
X103623750Y-120150000D01*
X103465000Y-120308750D01*
X103276472Y-120308750D01*
X103277067Y-119627000D01*
X106743000Y-119627000D01*
X106743000Y-120150000D01*
X106743000Y-120150000D01*
G37*
X106743000Y-120150000D02*
X106723000Y-120150000D01*
X106723000Y-121026250D01*
X106881750Y-121185000D01*
X107373000Y-121185000D01*
X107373000Y-125565000D01*
X106881750Y-125565000D01*
X106723000Y-125723750D01*
X106723000Y-126600000D01*
X106743000Y-126600000D01*
X106743000Y-127400000D01*
X106723000Y-127400000D01*
X106723000Y-128276250D01*
X106881750Y-128435000D01*
X107373000Y-128435000D01*
X107373000Y-132815000D01*
X106881750Y-132815000D01*
X106723000Y-132973750D01*
X106723000Y-133850000D01*
X106743000Y-133850000D01*
X106743000Y-134650000D01*
X106723000Y-134650000D01*
X106723000Y-135526250D01*
X106881750Y-135685000D01*
X107373000Y-135685000D01*
X107373000Y-140290000D01*
X91069931Y-140290000D01*
X90511660Y-140178953D01*
X90097669Y-139902333D01*
X89821046Y-139488338D01*
X89710000Y-138930069D01*
X89710000Y-138393109D01*
X90014657Y-138393109D01*
X90316218Y-139122943D01*
X90874120Y-139681819D01*
X91603427Y-139984654D01*
X92393109Y-139985343D01*
X93122943Y-139683782D01*
X93681819Y-139125880D01*
X93984654Y-138396573D01*
X93985343Y-137606891D01*
X93683782Y-136877057D01*
X93125880Y-136318181D01*
X92718372Y-136148969D01*
X93008089Y-136205940D01*
X94410728Y-135926937D01*
X94813795Y-135548404D01*
X97536205Y-135548404D01*
X97939272Y-135926937D01*
X99358089Y-136205940D01*
X100760728Y-135926937D01*
X101163795Y-135548404D01*
X100424142Y-134808750D01*
X103465000Y-134808750D01*
X103465000Y-135176310D01*
X103561673Y-135409699D01*
X103740302Y-135588327D01*
X103973691Y-135685000D01*
X104818250Y-135685000D01*
X104977000Y-135526250D01*
X104977000Y-134650000D01*
X103623750Y-134650000D01*
X103465000Y-134808750D01*
X100424142Y-134808750D01*
X99350000Y-133734608D01*
X97536205Y-135548404D01*
X94813795Y-135548404D01*
X93000000Y-133734608D01*
X91186205Y-135548404D01*
X91589272Y-135926937D01*
X92037265Y-136015033D01*
X91606891Y-136014657D01*
X90877057Y-136316218D01*
X90318181Y-136874120D01*
X90015346Y-137603427D01*
X90014657Y-138393109D01*
X89710000Y-138393109D01*
X89710000Y-134056540D01*
X89951596Y-134313795D01*
X91765392Y-132500000D01*
X94234608Y-132500000D01*
X96048404Y-134313795D01*
X96175000Y-134178994D01*
X96301596Y-134313795D01*
X98115392Y-132500000D01*
X100584608Y-132500000D01*
X102398404Y-134313795D01*
X102776937Y-133910728D01*
X102892374Y-133323690D01*
X103465000Y-133323690D01*
X103465000Y-133691250D01*
X103623750Y-133850000D01*
X104977000Y-133850000D01*
X104977000Y-132973750D01*
X104818250Y-132815000D01*
X103973691Y-132815000D01*
X103740302Y-132911673D01*
X103561673Y-133090301D01*
X103465000Y-133323690D01*
X102892374Y-133323690D01*
X103055940Y-132491911D01*
X102776937Y-131089272D01*
X102398404Y-130686205D01*
X100584608Y-132500000D01*
X98115392Y-132500000D01*
X96301596Y-130686205D01*
X96175000Y-130821006D01*
X96048404Y-130686205D01*
X94234608Y-132500000D01*
X91765392Y-132500000D01*
X89951596Y-130686205D01*
X89710000Y-130943460D01*
X89710000Y-128627000D01*
X91495287Y-128627000D01*
X92215496Y-128926057D01*
X92327826Y-128926155D01*
X91589272Y-129073063D01*
X91186205Y-129451596D01*
X93000000Y-131265392D01*
X94813795Y-129451596D01*
X94410728Y-129073063D01*
X93669609Y-128927326D01*
X93777650Y-128927420D01*
X94504721Y-128627000D01*
X97845287Y-128627000D01*
X98565496Y-128926057D01*
X98677826Y-128926155D01*
X97939272Y-129073063D01*
X97536205Y-129451596D01*
X99350000Y-131265392D01*
X101163795Y-129451596D01*
X100760728Y-129073063D01*
X100019609Y-128927326D01*
X100127650Y-128927420D01*
X100854722Y-128627000D01*
X103000000Y-128627000D01*
X103049410Y-128616994D01*
X103091035Y-128588553D01*
X103118315Y-128546159D01*
X103127000Y-128500000D01*
X103127000Y-127558750D01*
X103465000Y-127558750D01*
X103465000Y-127926310D01*
X103561673Y-128159699D01*
X103740302Y-128338327D01*
X103973691Y-128435000D01*
X104818250Y-128435000D01*
X104977000Y-128276250D01*
X104977000Y-127400000D01*
X103623750Y-127400000D01*
X103465000Y-127558750D01*
X103127000Y-127558750D01*
X103127000Y-126143473D01*
X103155976Y-126073690D01*
X103465000Y-126073690D01*
X103465000Y-126441250D01*
X103623750Y-126600000D01*
X104977000Y-126600000D01*
X104977000Y-125723750D01*
X104818250Y-125565000D01*
X103973691Y-125565000D01*
X103740302Y-125661673D01*
X103561673Y-125840301D01*
X103465000Y-126073690D01*
X103155976Y-126073690D01*
X103276057Y-125784504D01*
X103277420Y-124222350D01*
X103127000Y-123858306D01*
X103127000Y-121143473D01*
X103276057Y-120784504D01*
X103276472Y-120308750D01*
X103465000Y-120308750D01*
X103465000Y-120676310D01*
X103561673Y-120909699D01*
X103740302Y-121088327D01*
X103973691Y-121185000D01*
X104818250Y-121185000D01*
X104977000Y-121026250D01*
X104977000Y-120150000D01*
X103623750Y-120150000D01*
X103465000Y-120308750D01*
X103276472Y-120308750D01*
X103277067Y-119627000D01*
X106743000Y-119627000D01*
X106743000Y-120150000D01*
G36*
X174123000Y-108370606D02*
X168502371Y-108265663D01*
X168452783Y-108274745D01*
X168410634Y-108302404D01*
X168382568Y-108344281D01*
X168373000Y-108392641D01*
X168373000Y-110115000D01*
X165377000Y-110115000D01*
X165377000Y-108250000D01*
X165366994Y-108200590D01*
X165338553Y-108158965D01*
X165296159Y-108131685D01*
X165250000Y-108123000D01*
X163627000Y-108123000D01*
X163627000Y-105877000D01*
X174123000Y-105877000D01*
X174123000Y-108370606D01*
X174123000Y-108370606D01*
G37*
X174123000Y-108370606D02*
X168502371Y-108265663D01*
X168452783Y-108274745D01*
X168410634Y-108302404D01*
X168382568Y-108344281D01*
X168373000Y-108392641D01*
X168373000Y-110115000D01*
X165377000Y-110115000D01*
X165377000Y-108250000D01*
X165366994Y-108200590D01*
X165338553Y-108158965D01*
X165296159Y-108131685D01*
X165250000Y-108123000D01*
X163627000Y-108123000D01*
X163627000Y-105877000D01*
X174123000Y-105877000D01*
X174123000Y-108370606D01*
G36*
X142873000Y-125623000D02*
X140627000Y-125623000D01*
X140627000Y-123250000D01*
X140616994Y-123200590D01*
X140589803Y-123160197D01*
X138877000Y-121447394D01*
X138877000Y-120377000D01*
X142873000Y-120377000D01*
X142873000Y-125623000D01*
X142873000Y-125623000D01*
G37*
X142873000Y-125623000D02*
X140627000Y-125623000D01*
X140627000Y-123250000D01*
X140616994Y-123200590D01*
X140589803Y-123160197D01*
X138877000Y-121447394D01*
X138877000Y-120377000D01*
X142873000Y-120377000D01*
X142873000Y-125623000D01*
G36*
X143123000Y-115623000D02*
X139997440Y-115623000D01*
X139997440Y-114500000D01*
X139953162Y-114264683D01*
X139877000Y-114146324D01*
X139877000Y-114000000D01*
X139866994Y-113950590D01*
X139838553Y-113908965D01*
X139796159Y-113881685D01*
X139750000Y-113873000D01*
X139450936Y-113873000D01*
X139350000Y-113852560D01*
X138650000Y-113852560D01*
X138541371Y-113873000D01*
X137000000Y-113873000D01*
X136950590Y-113883006D01*
X136910197Y-113910197D01*
X134160197Y-116660197D01*
X134132334Y-116702211D01*
X134123000Y-116750000D01*
X134123000Y-121802198D01*
X134052198Y-121873000D01*
X129877000Y-121873000D01*
X129877000Y-115302606D01*
X136302606Y-108877000D01*
X143123000Y-108877000D01*
X143123000Y-115623000D01*
X143123000Y-115623000D01*
G37*
X143123000Y-115623000D02*
X139997440Y-115623000D01*
X139997440Y-114500000D01*
X139953162Y-114264683D01*
X139877000Y-114146324D01*
X139877000Y-114000000D01*
X139866994Y-113950590D01*
X139838553Y-113908965D01*
X139796159Y-113881685D01*
X139750000Y-113873000D01*
X139450936Y-113873000D01*
X139350000Y-113852560D01*
X138650000Y-113852560D01*
X138541371Y-113873000D01*
X137000000Y-113873000D01*
X136950590Y-113883006D01*
X136910197Y-113910197D01*
X134160197Y-116660197D01*
X134132334Y-116702211D01*
X134123000Y-116750000D01*
X134123000Y-121802198D01*
X134052198Y-121873000D01*
X129877000Y-121873000D01*
X129877000Y-115302606D01*
X136302606Y-108877000D01*
X143123000Y-108877000D01*
X143123000Y-115623000D01*
G36*
X123623000Y-117052606D02*
X123623000Y-121873000D01*
X121500000Y-121873000D01*
X121450590Y-121883006D01*
X121410197Y-121910197D01*
X117410197Y-125910197D01*
X117382334Y-125952211D01*
X117373000Y-126000000D01*
X117373000Y-130000000D01*
X117383006Y-130049410D01*
X117411447Y-130091035D01*
X117453841Y-130118315D01*
X117500000Y-130127000D01*
X125246724Y-130127000D01*
X125611629Y-130370822D01*
X126620000Y-130571399D01*
X127628371Y-130370822D01*
X127993277Y-130127000D01*
X130981275Y-130127000D01*
X131014767Y-130149379D01*
X131700000Y-130285680D01*
X132385233Y-130149379D01*
X132418725Y-130127000D01*
X133521275Y-130127000D01*
X133554767Y-130149379D01*
X134240000Y-130285680D01*
X134623000Y-130209497D01*
X134623000Y-140290000D01*
X109127000Y-140290000D01*
X109127000Y-118802606D01*
X112802606Y-115127000D01*
X121697394Y-115127000D01*
X123623000Y-117052606D01*
X123623000Y-117052606D01*
G37*
X123623000Y-117052606D02*
X123623000Y-121873000D01*
X121500000Y-121873000D01*
X121450590Y-121883006D01*
X121410197Y-121910197D01*
X117410197Y-125910197D01*
X117382334Y-125952211D01*
X117373000Y-126000000D01*
X117373000Y-130000000D01*
X117383006Y-130049410D01*
X117411447Y-130091035D01*
X117453841Y-130118315D01*
X117500000Y-130127000D01*
X125246724Y-130127000D01*
X125611629Y-130370822D01*
X126620000Y-130571399D01*
X127628371Y-130370822D01*
X127993277Y-130127000D01*
X130981275Y-130127000D01*
X131014767Y-130149379D01*
X131700000Y-130285680D01*
X132385233Y-130149379D01*
X132418725Y-130127000D01*
X133521275Y-130127000D01*
X133554767Y-130149379D01*
X134240000Y-130285680D01*
X134623000Y-130209497D01*
X134623000Y-140290000D01*
X109127000Y-140290000D01*
X109127000Y-118802606D01*
X112802606Y-115127000D01*
X121697394Y-115127000D01*
X123623000Y-117052606D01*
G36*
X183123000Y-129947394D02*
X182197394Y-130873000D01*
X181500000Y-130873000D01*
X181450590Y-130883006D01*
X181410197Y-130910197D01*
X179660197Y-132660197D01*
X179632334Y-132702211D01*
X179623000Y-132750000D01*
X179623000Y-132818328D01*
X179579304Y-132882279D01*
X179536257Y-133094854D01*
X179345805Y-133379886D01*
X179123000Y-134500000D01*
X179345805Y-135620114D01*
X179533160Y-135900511D01*
X179569478Y-136093526D01*
X179623000Y-136176702D01*
X179623000Y-136568328D01*
X179579304Y-136632279D01*
X179504839Y-137000000D01*
X179504839Y-139500000D01*
X179569478Y-139843526D01*
X179623000Y-139926702D01*
X179623000Y-140290000D01*
X136377000Y-140290000D01*
X136377000Y-130205519D01*
X136780000Y-130285680D01*
X137465233Y-130149379D01*
X137498725Y-130127000D01*
X138601275Y-130127000D01*
X138634767Y-130149379D01*
X139320000Y-130285680D01*
X140005233Y-130149379D01*
X140038725Y-130127000D01*
X141141275Y-130127000D01*
X141174767Y-130149379D01*
X141860000Y-130285680D01*
X142545233Y-130149379D01*
X142578725Y-130127000D01*
X143681275Y-130127000D01*
X143714767Y-130149379D01*
X144400000Y-130285680D01*
X145085233Y-130149379D01*
X145118725Y-130127000D01*
X146221275Y-130127000D01*
X146254767Y-130149379D01*
X146940000Y-130285680D01*
X147625233Y-130149379D01*
X147658725Y-130127000D01*
X148761275Y-130127000D01*
X148794767Y-130149379D01*
X149480000Y-130285680D01*
X150165233Y-130149379D01*
X150198725Y-130127000D01*
X151301275Y-130127000D01*
X151334767Y-130149379D01*
X152020000Y-130285680D01*
X152705233Y-130149379D01*
X152738725Y-130127000D01*
X152873000Y-130127000D01*
X152873000Y-130444086D01*
X152769400Y-130964920D01*
X152769400Y-131035080D01*
X152873000Y-131555914D01*
X152873000Y-132500000D01*
X152883006Y-132549410D01*
X152911447Y-132591035D01*
X152953841Y-132618315D01*
X153000000Y-132627000D01*
X153781410Y-132627000D01*
X153874767Y-132689379D01*
X154560000Y-132825680D01*
X155245233Y-132689379D01*
X155338590Y-132627000D01*
X156321410Y-132627000D01*
X156414767Y-132689379D01*
X157100000Y-132825680D01*
X157785233Y-132689379D01*
X157878590Y-132627000D01*
X167500000Y-132627000D01*
X167549410Y-132616994D01*
X167591035Y-132588553D01*
X167618315Y-132546159D01*
X167627000Y-132500000D01*
X167627000Y-127552606D01*
X170052606Y-125127000D01*
X174750000Y-125127000D01*
X174799410Y-125116994D01*
X174839803Y-125089803D01*
X179089803Y-120839803D01*
X179117666Y-120797789D01*
X179127000Y-120750000D01*
X179127000Y-106377000D01*
X183123000Y-106377000D01*
X183123000Y-129947394D01*
X183123000Y-129947394D01*
G37*
X183123000Y-129947394D02*
X182197394Y-130873000D01*
X181500000Y-130873000D01*
X181450590Y-130883006D01*
X181410197Y-130910197D01*
X179660197Y-132660197D01*
X179632334Y-132702211D01*
X179623000Y-132750000D01*
X179623000Y-132818328D01*
X179579304Y-132882279D01*
X179536257Y-133094854D01*
X179345805Y-133379886D01*
X179123000Y-134500000D01*
X179345805Y-135620114D01*
X179533160Y-135900511D01*
X179569478Y-136093526D01*
X179623000Y-136176702D01*
X179623000Y-136568328D01*
X179579304Y-136632279D01*
X179504839Y-137000000D01*
X179504839Y-139500000D01*
X179569478Y-139843526D01*
X179623000Y-139926702D01*
X179623000Y-140290000D01*
X136377000Y-140290000D01*
X136377000Y-130205519D01*
X136780000Y-130285680D01*
X137465233Y-130149379D01*
X137498725Y-130127000D01*
X138601275Y-130127000D01*
X138634767Y-130149379D01*
X139320000Y-130285680D01*
X140005233Y-130149379D01*
X140038725Y-130127000D01*
X141141275Y-130127000D01*
X141174767Y-130149379D01*
X141860000Y-130285680D01*
X142545233Y-130149379D01*
X142578725Y-130127000D01*
X143681275Y-130127000D01*
X143714767Y-130149379D01*
X144400000Y-130285680D01*
X145085233Y-130149379D01*
X145118725Y-130127000D01*
X146221275Y-130127000D01*
X146254767Y-130149379D01*
X146940000Y-130285680D01*
X147625233Y-130149379D01*
X147658725Y-130127000D01*
X148761275Y-130127000D01*
X148794767Y-130149379D01*
X149480000Y-130285680D01*
X150165233Y-130149379D01*
X150198725Y-130127000D01*
X151301275Y-130127000D01*
X151334767Y-130149379D01*
X152020000Y-130285680D01*
X152705233Y-130149379D01*
X152738725Y-130127000D01*
X152873000Y-130127000D01*
X152873000Y-130444086D01*
X152769400Y-130964920D01*
X152769400Y-131035080D01*
X152873000Y-131555914D01*
X152873000Y-132500000D01*
X152883006Y-132549410D01*
X152911447Y-132591035D01*
X152953841Y-132618315D01*
X153000000Y-132627000D01*
X153781410Y-132627000D01*
X153874767Y-132689379D01*
X154560000Y-132825680D01*
X155245233Y-132689379D01*
X155338590Y-132627000D01*
X156321410Y-132627000D01*
X156414767Y-132689379D01*
X157100000Y-132825680D01*
X157785233Y-132689379D01*
X157878590Y-132627000D01*
X167500000Y-132627000D01*
X167549410Y-132616994D01*
X167591035Y-132588553D01*
X167618315Y-132546159D01*
X167627000Y-132500000D01*
X167627000Y-127552606D01*
X170052606Y-125127000D01*
X174750000Y-125127000D01*
X174799410Y-125116994D01*
X174839803Y-125089803D01*
X179089803Y-120839803D01*
X179117666Y-120797789D01*
X179127000Y-120750000D01*
X179127000Y-106377000D01*
X183123000Y-106377000D01*
X183123000Y-129947394D01*
G36*
X143123000Y-108207560D02*
X139995909Y-108207560D01*
X139997440Y-108200000D01*
X139997440Y-107000000D01*
X139953162Y-106764683D01*
X139877000Y-106646324D01*
X139877000Y-103877000D01*
X143123000Y-103877000D01*
X143123000Y-108207560D01*
X143123000Y-108207560D01*
G37*
X143123000Y-108207560D02*
X139995909Y-108207560D01*
X139997440Y-108200000D01*
X139997440Y-107000000D01*
X139953162Y-106764683D01*
X139877000Y-106646324D01*
X139877000Y-103877000D01*
X143123000Y-103877000D01*
X143123000Y-108207560D01*
G36*
X136623000Y-100294549D02*
X136623000Y-103123000D01*
X134627000Y-103123000D01*
X134627000Y-100453026D01*
X134770696Y-100242721D01*
X134845161Y-99875000D01*
X134845161Y-99127000D01*
X135688961Y-99127000D01*
X136623000Y-100294549D01*
X136623000Y-100294549D01*
G37*
X136623000Y-100294549D02*
X136623000Y-103123000D01*
X134627000Y-103123000D01*
X134627000Y-100453026D01*
X134770696Y-100242721D01*
X134845161Y-99875000D01*
X134845161Y-99127000D01*
X135688961Y-99127000D01*
X136623000Y-100294549D01*
G36*
X168910197Y-111089803D02*
X168952211Y-111117666D01*
X169000000Y-111127000D01*
X170302198Y-111127000D01*
X170373000Y-111197802D01*
X170373000Y-114322560D01*
X169250000Y-114322560D01*
X169014683Y-114366838D01*
X169005107Y-114373000D01*
X169000000Y-114373000D01*
X168950590Y-114383006D01*
X168910197Y-114410197D01*
X168843227Y-114477167D01*
X168798559Y-114505910D01*
X168764205Y-114556189D01*
X168410197Y-114910197D01*
X168382334Y-114952211D01*
X168373000Y-115000000D01*
X168373000Y-116000000D01*
X168383006Y-116049410D01*
X168410197Y-116089803D01*
X168606577Y-116286183D01*
X168706883Y-116528943D01*
X168969673Y-116792192D01*
X169313201Y-116934838D01*
X169685167Y-116935162D01*
X170028943Y-116793117D01*
X170195350Y-116627000D01*
X174373000Y-116627000D01*
X174373000Y-121373000D01*
X167197802Y-121373000D01*
X165537401Y-119712599D01*
X165290839Y-119547852D01*
X165211720Y-119532114D01*
X164127000Y-118447394D01*
X164127000Y-110877000D01*
X168697394Y-110877000D01*
X168910197Y-111089803D01*
X168910197Y-111089803D01*
G37*
X168910197Y-111089803D02*
X168952211Y-111117666D01*
X169000000Y-111127000D01*
X170302198Y-111127000D01*
X170373000Y-111197802D01*
X170373000Y-114322560D01*
X169250000Y-114322560D01*
X169014683Y-114366838D01*
X169005107Y-114373000D01*
X169000000Y-114373000D01*
X168950590Y-114383006D01*
X168910197Y-114410197D01*
X168843227Y-114477167D01*
X168798559Y-114505910D01*
X168764205Y-114556189D01*
X168410197Y-114910197D01*
X168382334Y-114952211D01*
X168373000Y-115000000D01*
X168373000Y-116000000D01*
X168383006Y-116049410D01*
X168410197Y-116089803D01*
X168606577Y-116286183D01*
X168706883Y-116528943D01*
X168969673Y-116792192D01*
X169313201Y-116934838D01*
X169685167Y-116935162D01*
X170028943Y-116793117D01*
X170195350Y-116627000D01*
X174373000Y-116627000D01*
X174373000Y-121373000D01*
X167197802Y-121373000D01*
X165537401Y-119712599D01*
X165290839Y-119547852D01*
X165211720Y-119532114D01*
X164127000Y-118447394D01*
X164127000Y-110877000D01*
X168697394Y-110877000D01*
X168910197Y-111089803D01*
G36*
X145235910Y-117901441D02*
X145448110Y-118046431D01*
X145700000Y-118097440D01*
X146900000Y-118097440D01*
X147135317Y-118053162D01*
X147351441Y-117914090D01*
X147399134Y-117844289D01*
X147435910Y-117901441D01*
X147648110Y-118046431D01*
X147900000Y-118097440D01*
X147921109Y-118097440D01*
X147903569Y-118123110D01*
X147852560Y-118375000D01*
X147852560Y-119125000D01*
X147896838Y-119360317D01*
X147898400Y-119362744D01*
X147815162Y-119563201D01*
X147814838Y-119935167D01*
X147956883Y-120278943D01*
X148219673Y-120542192D01*
X148563201Y-120684838D01*
X148571796Y-120684845D01*
X148528569Y-120748110D01*
X148509961Y-120840000D01*
X148342263Y-120840000D01*
X148293117Y-120721057D01*
X148030327Y-120457808D01*
X147686799Y-120315162D01*
X147314833Y-120314838D01*
X146971057Y-120456883D01*
X146707808Y-120719673D01*
X146565162Y-121063201D01*
X146564838Y-121435167D01*
X146706883Y-121778943D01*
X146969673Y-122042192D01*
X147313201Y-122184838D01*
X147383686Y-122184899D01*
X147559161Y-122302148D01*
X147850000Y-122360000D01*
X148507666Y-122360000D01*
X148521838Y-122435317D01*
X148595620Y-122549978D01*
X148528569Y-122648110D01*
X148477560Y-122900000D01*
X148477560Y-124100000D01*
X148521838Y-124335317D01*
X148660910Y-124551441D01*
X148873110Y-124696431D01*
X149125000Y-124747440D01*
X149875000Y-124747440D01*
X150110317Y-124703162D01*
X150247882Y-124614641D01*
X150335910Y-124751441D01*
X150548110Y-124896431D01*
X150800000Y-124947440D01*
X151700000Y-124947440D01*
X151935317Y-124903162D01*
X152151441Y-124764090D01*
X152296431Y-124551890D01*
X152347440Y-124300000D01*
X152347440Y-123100000D01*
X152303162Y-122864683D01*
X152164090Y-122648559D01*
X152094289Y-122600866D01*
X152151441Y-122564090D01*
X152296431Y-122351890D01*
X152347440Y-122100000D01*
X152347440Y-120900000D01*
X152303162Y-120664683D01*
X152164090Y-120448559D01*
X151951890Y-120303569D01*
X151760000Y-120264710D01*
X151760000Y-119742334D01*
X151835317Y-119728162D01*
X152051441Y-119589090D01*
X152196431Y-119376890D01*
X152247440Y-119125000D01*
X152247440Y-118577362D01*
X152537401Y-118287401D01*
X152702148Y-118040839D01*
X152714116Y-117980672D01*
X152740000Y-117975801D01*
X152740000Y-120644895D01*
X152598559Y-120735910D01*
X152453569Y-120948110D01*
X152402560Y-121200000D01*
X152402560Y-122400000D01*
X152446838Y-122635317D01*
X152585910Y-122851441D01*
X152798110Y-122996431D01*
X153050000Y-123047440D01*
X153950000Y-123047440D01*
X154185317Y-123003162D01*
X154401441Y-122864090D01*
X154546431Y-122651890D01*
X154597440Y-122400000D01*
X154597440Y-121200000D01*
X154553162Y-120964683D01*
X154414090Y-120748559D01*
X154260000Y-120643274D01*
X154260000Y-119164540D01*
X154296838Y-119360317D01*
X154435910Y-119576441D01*
X154648110Y-119721431D01*
X154900000Y-119772440D01*
X155672638Y-119772440D01*
X156240000Y-120339802D01*
X156240000Y-120394895D01*
X156098559Y-120485910D01*
X155953569Y-120698110D01*
X155902560Y-120950000D01*
X155902560Y-122150000D01*
X155946838Y-122385317D01*
X156085910Y-122601441D01*
X156155711Y-122649134D01*
X156098559Y-122685910D01*
X155953569Y-122898110D01*
X155902560Y-123150000D01*
X155902560Y-124350000D01*
X155946838Y-124585317D01*
X156085910Y-124801441D01*
X156298110Y-124946431D01*
X156550000Y-124997440D01*
X157450000Y-124997440D01*
X157685317Y-124953162D01*
X157901441Y-124814090D01*
X158046431Y-124601890D01*
X158051088Y-124578893D01*
X158223110Y-124696431D01*
X158475000Y-124747440D01*
X159225000Y-124747440D01*
X159460317Y-124703162D01*
X159676441Y-124564090D01*
X159821431Y-124351890D01*
X159872440Y-124100000D01*
X159872440Y-122900000D01*
X159828162Y-122664683D01*
X159754380Y-122550022D01*
X159821431Y-122451890D01*
X159872440Y-122200000D01*
X159872440Y-121000000D01*
X159828162Y-120764683D01*
X159689090Y-120548559D01*
X159610000Y-120494519D01*
X159610000Y-119975000D01*
X159552148Y-119684161D01*
X159387401Y-119437599D01*
X159261133Y-119311331D01*
X159292192Y-119280327D01*
X159434838Y-118936799D01*
X159435162Y-118564833D01*
X159345337Y-118347440D01*
X159350000Y-118347440D01*
X159585317Y-118303162D01*
X159801441Y-118164090D01*
X159849134Y-118094289D01*
X159885910Y-118151441D01*
X160098110Y-118296431D01*
X160350000Y-118347440D01*
X161373000Y-118347440D01*
X161373000Y-119000000D01*
X161383006Y-119049410D01*
X161410197Y-119089803D01*
X162565004Y-120244610D01*
X162564838Y-120435167D01*
X162706883Y-120778943D01*
X162969673Y-121042192D01*
X163313201Y-121184838D01*
X163505399Y-121185005D01*
X164623000Y-122302606D01*
X164623000Y-131873000D01*
X153877000Y-131873000D01*
X153877000Y-129500000D01*
X153866994Y-129450590D01*
X153838553Y-129408965D01*
X153796159Y-129381685D01*
X153750000Y-129373000D01*
X131127000Y-129373000D01*
X131127000Y-128430641D01*
X155601400Y-128430641D01*
X155601400Y-128489359D01*
X155715474Y-129062848D01*
X156040330Y-129549029D01*
X156526511Y-129873885D01*
X157100000Y-129987959D01*
X157673489Y-129873885D01*
X158159670Y-129549029D01*
X158484526Y-129062848D01*
X158598600Y-128489359D01*
X158598600Y-128430641D01*
X158484526Y-127857152D01*
X158159670Y-127370971D01*
X157673489Y-127046115D01*
X157100000Y-126932041D01*
X156526511Y-127046115D01*
X156040330Y-127370971D01*
X155715474Y-127857152D01*
X155601400Y-128430641D01*
X131127000Y-128430641D01*
X131127000Y-127127000D01*
X132250000Y-127127000D01*
X132299410Y-127116994D01*
X132339803Y-127089803D01*
X134302606Y-125127000D01*
X136697394Y-125127000D01*
X138660197Y-127089803D01*
X138702211Y-127117666D01*
X138750000Y-127127000D01*
X145000000Y-127127000D01*
X145049410Y-127116994D01*
X145091035Y-127088553D01*
X145118315Y-127046159D01*
X145127000Y-127000000D01*
X145127000Y-117760000D01*
X145144895Y-117760000D01*
X145235910Y-117901441D01*
X145235910Y-117901441D01*
G37*
X145235910Y-117901441D02*
X145448110Y-118046431D01*
X145700000Y-118097440D01*
X146900000Y-118097440D01*
X147135317Y-118053162D01*
X147351441Y-117914090D01*
X147399134Y-117844289D01*
X147435910Y-117901441D01*
X147648110Y-118046431D01*
X147900000Y-118097440D01*
X147921109Y-118097440D01*
X147903569Y-118123110D01*
X147852560Y-118375000D01*
X147852560Y-119125000D01*
X147896838Y-119360317D01*
X147898400Y-119362744D01*
X147815162Y-119563201D01*
X147814838Y-119935167D01*
X147956883Y-120278943D01*
X148219673Y-120542192D01*
X148563201Y-120684838D01*
X148571796Y-120684845D01*
X148528569Y-120748110D01*
X148509961Y-120840000D01*
X148342263Y-120840000D01*
X148293117Y-120721057D01*
X148030327Y-120457808D01*
X147686799Y-120315162D01*
X147314833Y-120314838D01*
X146971057Y-120456883D01*
X146707808Y-120719673D01*
X146565162Y-121063201D01*
X146564838Y-121435167D01*
X146706883Y-121778943D01*
X146969673Y-122042192D01*
X147313201Y-122184838D01*
X147383686Y-122184899D01*
X147559161Y-122302148D01*
X147850000Y-122360000D01*
X148507666Y-122360000D01*
X148521838Y-122435317D01*
X148595620Y-122549978D01*
X148528569Y-122648110D01*
X148477560Y-122900000D01*
X148477560Y-124100000D01*
X148521838Y-124335317D01*
X148660910Y-124551441D01*
X148873110Y-124696431D01*
X149125000Y-124747440D01*
X149875000Y-124747440D01*
X150110317Y-124703162D01*
X150247882Y-124614641D01*
X150335910Y-124751441D01*
X150548110Y-124896431D01*
X150800000Y-124947440D01*
X151700000Y-124947440D01*
X151935317Y-124903162D01*
X152151441Y-124764090D01*
X152296431Y-124551890D01*
X152347440Y-124300000D01*
X152347440Y-123100000D01*
X152303162Y-122864683D01*
X152164090Y-122648559D01*
X152094289Y-122600866D01*
X152151441Y-122564090D01*
X152296431Y-122351890D01*
X152347440Y-122100000D01*
X152347440Y-120900000D01*
X152303162Y-120664683D01*
X152164090Y-120448559D01*
X151951890Y-120303569D01*
X151760000Y-120264710D01*
X151760000Y-119742334D01*
X151835317Y-119728162D01*
X152051441Y-119589090D01*
X152196431Y-119376890D01*
X152247440Y-119125000D01*
X152247440Y-118577362D01*
X152537401Y-118287401D01*
X152702148Y-118040839D01*
X152714116Y-117980672D01*
X152740000Y-117975801D01*
X152740000Y-120644895D01*
X152598559Y-120735910D01*
X152453569Y-120948110D01*
X152402560Y-121200000D01*
X152402560Y-122400000D01*
X152446838Y-122635317D01*
X152585910Y-122851441D01*
X152798110Y-122996431D01*
X153050000Y-123047440D01*
X153950000Y-123047440D01*
X154185317Y-123003162D01*
X154401441Y-122864090D01*
X154546431Y-122651890D01*
X154597440Y-122400000D01*
X154597440Y-121200000D01*
X154553162Y-120964683D01*
X154414090Y-120748559D01*
X154260000Y-120643274D01*
X154260000Y-119164540D01*
X154296838Y-119360317D01*
X154435910Y-119576441D01*
X154648110Y-119721431D01*
X154900000Y-119772440D01*
X155672638Y-119772440D01*
X156240000Y-120339802D01*
X156240000Y-120394895D01*
X156098559Y-120485910D01*
X155953569Y-120698110D01*
X155902560Y-120950000D01*
X155902560Y-122150000D01*
X155946838Y-122385317D01*
X156085910Y-122601441D01*
X156155711Y-122649134D01*
X156098559Y-122685910D01*
X155953569Y-122898110D01*
X155902560Y-123150000D01*
X155902560Y-124350000D01*
X155946838Y-124585317D01*
X156085910Y-124801441D01*
X156298110Y-124946431D01*
X156550000Y-124997440D01*
X157450000Y-124997440D01*
X157685317Y-124953162D01*
X157901441Y-124814090D01*
X158046431Y-124601890D01*
X158051088Y-124578893D01*
X158223110Y-124696431D01*
X158475000Y-124747440D01*
X159225000Y-124747440D01*
X159460317Y-124703162D01*
X159676441Y-124564090D01*
X159821431Y-124351890D01*
X159872440Y-124100000D01*
X159872440Y-122900000D01*
X159828162Y-122664683D01*
X159754380Y-122550022D01*
X159821431Y-122451890D01*
X159872440Y-122200000D01*
X159872440Y-121000000D01*
X159828162Y-120764683D01*
X159689090Y-120548559D01*
X159610000Y-120494519D01*
X159610000Y-119975000D01*
X159552148Y-119684161D01*
X159387401Y-119437599D01*
X159261133Y-119311331D01*
X159292192Y-119280327D01*
X159434838Y-118936799D01*
X159435162Y-118564833D01*
X159345337Y-118347440D01*
X159350000Y-118347440D01*
X159585317Y-118303162D01*
X159801441Y-118164090D01*
X159849134Y-118094289D01*
X159885910Y-118151441D01*
X160098110Y-118296431D01*
X160350000Y-118347440D01*
X161373000Y-118347440D01*
X161373000Y-119000000D01*
X161383006Y-119049410D01*
X161410197Y-119089803D01*
X162565004Y-120244610D01*
X162564838Y-120435167D01*
X162706883Y-120778943D01*
X162969673Y-121042192D01*
X163313201Y-121184838D01*
X163505399Y-121185005D01*
X164623000Y-122302606D01*
X164623000Y-131873000D01*
X153877000Y-131873000D01*
X153877000Y-129500000D01*
X153866994Y-129450590D01*
X153838553Y-129408965D01*
X153796159Y-129381685D01*
X153750000Y-129373000D01*
X131127000Y-129373000D01*
X131127000Y-128430641D01*
X155601400Y-128430641D01*
X155601400Y-128489359D01*
X155715474Y-129062848D01*
X156040330Y-129549029D01*
X156526511Y-129873885D01*
X157100000Y-129987959D01*
X157673489Y-129873885D01*
X158159670Y-129549029D01*
X158484526Y-129062848D01*
X158598600Y-128489359D01*
X158598600Y-128430641D01*
X158484526Y-127857152D01*
X158159670Y-127370971D01*
X157673489Y-127046115D01*
X157100000Y-126932041D01*
X156526511Y-127046115D01*
X156040330Y-127370971D01*
X155715474Y-127857152D01*
X155601400Y-128430641D01*
X131127000Y-128430641D01*
X131127000Y-127127000D01*
X132250000Y-127127000D01*
X132299410Y-127116994D01*
X132339803Y-127089803D01*
X134302606Y-125127000D01*
X136697394Y-125127000D01*
X138660197Y-127089803D01*
X138702211Y-127117666D01*
X138750000Y-127127000D01*
X145000000Y-127127000D01*
X145049410Y-127116994D01*
X145091035Y-127088553D01*
X145118315Y-127046159D01*
X145127000Y-127000000D01*
X145127000Y-117760000D01*
X145144895Y-117760000D01*
X145235910Y-117901441D01*
G36*
X161373000Y-107802606D02*
X161373000Y-110642480D01*
X161186799Y-110565162D01*
X160814833Y-110564838D01*
X160471057Y-110706883D01*
X160207808Y-110969673D01*
X160065162Y-111313201D01*
X160064838Y-111685167D01*
X160206883Y-112028943D01*
X160469673Y-112292192D01*
X160813201Y-112434838D01*
X161185167Y-112435162D01*
X161373000Y-112357551D01*
X161373000Y-116152560D01*
X160350000Y-116152560D01*
X160114683Y-116196838D01*
X159898559Y-116335910D01*
X159850866Y-116405711D01*
X159814090Y-116348559D01*
X159601890Y-116203569D01*
X159350000Y-116152560D01*
X159241859Y-116152560D01*
X159247440Y-116125000D01*
X159247440Y-115375000D01*
X159203162Y-115139683D01*
X159064090Y-114923559D01*
X158851890Y-114778569D01*
X158600000Y-114727560D01*
X158010131Y-114727560D01*
X157890839Y-114647852D01*
X157685104Y-114606928D01*
X157685162Y-114539833D01*
X157543117Y-114196057D01*
X157397291Y-114049976D01*
X157542192Y-113905327D01*
X157597372Y-113772440D01*
X158700000Y-113772440D01*
X158935317Y-113728162D01*
X159151441Y-113589090D01*
X159296431Y-113376890D01*
X159347440Y-113125000D01*
X159347440Y-112375000D01*
X159303162Y-112139683D01*
X159164090Y-111923559D01*
X158951890Y-111778569D01*
X158700000Y-111727560D01*
X157799545Y-111727560D01*
X157810000Y-111675000D01*
X157810000Y-107722931D01*
X157901441Y-107664090D01*
X158046431Y-107451890D01*
X158097440Y-107200000D01*
X158097440Y-106300000D01*
X158053162Y-106064683D01*
X157914090Y-105848559D01*
X157701890Y-105703569D01*
X157450000Y-105652560D01*
X156650000Y-105652560D01*
X156414683Y-105696838D01*
X156198559Y-105835910D01*
X156053569Y-106048110D01*
X156002560Y-106300000D01*
X156002560Y-107200000D01*
X156012450Y-107252560D01*
X155986796Y-107252560D01*
X155997440Y-107200000D01*
X155997440Y-106300000D01*
X155953162Y-106064683D01*
X155814090Y-105848559D01*
X155601890Y-105703569D01*
X155350000Y-105652560D01*
X154550000Y-105652560D01*
X154314683Y-105696838D01*
X154098559Y-105835910D01*
X153953569Y-106048110D01*
X153902560Y-106300000D01*
X153902560Y-107200000D01*
X153946838Y-107435317D01*
X154085910Y-107651441D01*
X154273982Y-107779945D01*
X154412599Y-107987401D01*
X154977560Y-108552362D01*
X154977560Y-108672638D01*
X154611288Y-109038910D01*
X154530327Y-108957808D01*
X154186799Y-108815162D01*
X153814833Y-108814838D01*
X153760000Y-108837494D01*
X153760000Y-105127000D01*
X158697394Y-105127000D01*
X161373000Y-107802606D01*
X161373000Y-107802606D01*
G37*
X161373000Y-107802606D02*
X161373000Y-110642480D01*
X161186799Y-110565162D01*
X160814833Y-110564838D01*
X160471057Y-110706883D01*
X160207808Y-110969673D01*
X160065162Y-111313201D01*
X160064838Y-111685167D01*
X160206883Y-112028943D01*
X160469673Y-112292192D01*
X160813201Y-112434838D01*
X161185167Y-112435162D01*
X161373000Y-112357551D01*
X161373000Y-116152560D01*
X160350000Y-116152560D01*
X160114683Y-116196838D01*
X159898559Y-116335910D01*
X159850866Y-116405711D01*
X159814090Y-116348559D01*
X159601890Y-116203569D01*
X159350000Y-116152560D01*
X159241859Y-116152560D01*
X159247440Y-116125000D01*
X159247440Y-115375000D01*
X159203162Y-115139683D01*
X159064090Y-114923559D01*
X158851890Y-114778569D01*
X158600000Y-114727560D01*
X158010131Y-114727560D01*
X157890839Y-114647852D01*
X157685104Y-114606928D01*
X157685162Y-114539833D01*
X157543117Y-114196057D01*
X157397291Y-114049976D01*
X157542192Y-113905327D01*
X157597372Y-113772440D01*
X158700000Y-113772440D01*
X158935317Y-113728162D01*
X159151441Y-113589090D01*
X159296431Y-113376890D01*
X159347440Y-113125000D01*
X159347440Y-112375000D01*
X159303162Y-112139683D01*
X159164090Y-111923559D01*
X158951890Y-111778569D01*
X158700000Y-111727560D01*
X157799545Y-111727560D01*
X157810000Y-111675000D01*
X157810000Y-107722931D01*
X157901441Y-107664090D01*
X158046431Y-107451890D01*
X158097440Y-107200000D01*
X158097440Y-106300000D01*
X158053162Y-106064683D01*
X157914090Y-105848559D01*
X157701890Y-105703569D01*
X157450000Y-105652560D01*
X156650000Y-105652560D01*
X156414683Y-105696838D01*
X156198559Y-105835910D01*
X156053569Y-106048110D01*
X156002560Y-106300000D01*
X156002560Y-107200000D01*
X156012450Y-107252560D01*
X155986796Y-107252560D01*
X155997440Y-107200000D01*
X155997440Y-106300000D01*
X155953162Y-106064683D01*
X155814090Y-105848559D01*
X155601890Y-105703569D01*
X155350000Y-105652560D01*
X154550000Y-105652560D01*
X154314683Y-105696838D01*
X154098559Y-105835910D01*
X153953569Y-106048110D01*
X153902560Y-106300000D01*
X153902560Y-107200000D01*
X153946838Y-107435317D01*
X154085910Y-107651441D01*
X154273982Y-107779945D01*
X154412599Y-107987401D01*
X154977560Y-108552362D01*
X154977560Y-108672638D01*
X154611288Y-109038910D01*
X154530327Y-108957808D01*
X154186799Y-108815162D01*
X153814833Y-108814838D01*
X153760000Y-108837494D01*
X153760000Y-105127000D01*
X158697394Y-105127000D01*
X161373000Y-107802606D01*
G36*
X149469673Y-105292192D02*
X149813201Y-105434838D01*
X150185167Y-105435162D01*
X150528943Y-105293117D01*
X150695350Y-105127000D01*
X152240000Y-105127000D01*
X152240000Y-105652560D01*
X151600000Y-105652560D01*
X151364683Y-105696838D01*
X151148559Y-105835910D01*
X151003569Y-106048110D01*
X150952560Y-106300000D01*
X150952560Y-107200000D01*
X150971858Y-107302560D01*
X150926671Y-107302560D01*
X150947440Y-107200000D01*
X150947440Y-106300000D01*
X150903162Y-106064683D01*
X150764090Y-105848559D01*
X150551890Y-105703569D01*
X150300000Y-105652560D01*
X149500000Y-105652560D01*
X149264683Y-105696838D01*
X149048559Y-105835910D01*
X148903569Y-106048110D01*
X148852560Y-106300000D01*
X148852560Y-107200000D01*
X148896838Y-107435317D01*
X149035910Y-107651441D01*
X149140000Y-107722563D01*
X149140000Y-111745785D01*
X149050000Y-111727560D01*
X147850000Y-111727560D01*
X147614683Y-111771838D01*
X147398559Y-111910910D01*
X147253569Y-112123110D01*
X147202560Y-112375000D01*
X147202560Y-113125000D01*
X147246838Y-113360317D01*
X147385910Y-113576441D01*
X147598110Y-113721431D01*
X147850000Y-113772440D01*
X148902547Y-113772440D01*
X148956883Y-113903943D01*
X149102709Y-114050024D01*
X148957808Y-114194673D01*
X148840342Y-114477560D01*
X147800000Y-114477560D01*
X147564683Y-114521838D01*
X147348559Y-114660910D01*
X147203569Y-114873110D01*
X147152560Y-115125000D01*
X147152560Y-115875000D01*
X147169624Y-115965686D01*
X147151890Y-115953569D01*
X146900000Y-115902560D01*
X145700000Y-115902560D01*
X145464683Y-115946838D01*
X145248559Y-116085910D01*
X145143274Y-116240000D01*
X145127000Y-116240000D01*
X145127000Y-105127000D01*
X149304769Y-105127000D01*
X149469673Y-105292192D01*
X149469673Y-105292192D01*
G37*
X149469673Y-105292192D02*
X149813201Y-105434838D01*
X150185167Y-105435162D01*
X150528943Y-105293117D01*
X150695350Y-105127000D01*
X152240000Y-105127000D01*
X152240000Y-105652560D01*
X151600000Y-105652560D01*
X151364683Y-105696838D01*
X151148559Y-105835910D01*
X151003569Y-106048110D01*
X150952560Y-106300000D01*
X150952560Y-107200000D01*
X150971858Y-107302560D01*
X150926671Y-107302560D01*
X150947440Y-107200000D01*
X150947440Y-106300000D01*
X150903162Y-106064683D01*
X150764090Y-105848559D01*
X150551890Y-105703569D01*
X150300000Y-105652560D01*
X149500000Y-105652560D01*
X149264683Y-105696838D01*
X149048559Y-105835910D01*
X148903569Y-106048110D01*
X148852560Y-106300000D01*
X148852560Y-107200000D01*
X148896838Y-107435317D01*
X149035910Y-107651441D01*
X149140000Y-107722563D01*
X149140000Y-111745785D01*
X149050000Y-111727560D01*
X147850000Y-111727560D01*
X147614683Y-111771838D01*
X147398559Y-111910910D01*
X147253569Y-112123110D01*
X147202560Y-112375000D01*
X147202560Y-113125000D01*
X147246838Y-113360317D01*
X147385910Y-113576441D01*
X147598110Y-113721431D01*
X147850000Y-113772440D01*
X148902547Y-113772440D01*
X148956883Y-113903943D01*
X149102709Y-114050024D01*
X148957808Y-114194673D01*
X148840342Y-114477560D01*
X147800000Y-114477560D01*
X147564683Y-114521838D01*
X147348559Y-114660910D01*
X147203569Y-114873110D01*
X147152560Y-115125000D01*
X147152560Y-115875000D01*
X147169624Y-115965686D01*
X147151890Y-115953569D01*
X146900000Y-115902560D01*
X145700000Y-115902560D01*
X145464683Y-115946838D01*
X145248559Y-116085910D01*
X145143274Y-116240000D01*
X145127000Y-116240000D01*
X145127000Y-105127000D01*
X149304769Y-105127000D01*
X149469673Y-105292192D01*
G36*
X154375000Y-113197440D02*
X154625000Y-113197440D01*
X154659454Y-113190957D01*
X154652560Y-113225000D01*
X154652560Y-113475000D01*
X154696838Y-113710317D01*
X154835910Y-113926441D01*
X155048110Y-114071431D01*
X155185120Y-114099176D01*
X155064683Y-114121838D01*
X154848559Y-114260910D01*
X154703569Y-114473110D01*
X154652560Y-114725000D01*
X154652560Y-114975000D01*
X154676944Y-115104589D01*
X154652560Y-115225000D01*
X154652560Y-115475000D01*
X154676944Y-115604589D01*
X154652560Y-115725000D01*
X154652560Y-115975000D01*
X154659043Y-116009454D01*
X154625000Y-116002560D01*
X154375000Y-116002560D01*
X154245411Y-116026944D01*
X154125000Y-116002560D01*
X153875000Y-116002560D01*
X153745411Y-116026944D01*
X153625000Y-116002560D01*
X153375000Y-116002560D01*
X153139683Y-116046838D01*
X152999273Y-116137190D01*
X152876890Y-116053569D01*
X152625000Y-116002560D01*
X152375000Y-116002560D01*
X152245411Y-116026944D01*
X152125000Y-116002560D01*
X151875000Y-116002560D01*
X151840546Y-116009043D01*
X151847440Y-115975000D01*
X151847440Y-115725000D01*
X151823056Y-115595411D01*
X151847440Y-115475000D01*
X151847440Y-115225000D01*
X151823056Y-115095411D01*
X151847440Y-114975000D01*
X151847440Y-114725000D01*
X151803162Y-114489683D01*
X151664090Y-114273559D01*
X151451890Y-114128569D01*
X151314880Y-114100824D01*
X151435317Y-114078162D01*
X151651441Y-113939090D01*
X151796431Y-113726890D01*
X151847440Y-113475000D01*
X151847440Y-113225000D01*
X151840957Y-113190546D01*
X151875000Y-113197440D01*
X152125000Y-113197440D01*
X152254589Y-113173056D01*
X152375000Y-113197440D01*
X152625000Y-113197440D01*
X152754589Y-113173056D01*
X152875000Y-113197440D01*
X153125000Y-113197440D01*
X153254589Y-113173056D01*
X153375000Y-113197440D01*
X153625000Y-113197440D01*
X153754589Y-113173056D01*
X153875000Y-113197440D01*
X154125000Y-113197440D01*
X154254589Y-113173056D01*
X154375000Y-113197440D01*
X154375000Y-113197440D01*
G37*
X154375000Y-113197440D02*
X154625000Y-113197440D01*
X154659454Y-113190957D01*
X154652560Y-113225000D01*
X154652560Y-113475000D01*
X154696838Y-113710317D01*
X154835910Y-113926441D01*
X155048110Y-114071431D01*
X155185120Y-114099176D01*
X155064683Y-114121838D01*
X154848559Y-114260910D01*
X154703569Y-114473110D01*
X154652560Y-114725000D01*
X154652560Y-114975000D01*
X154676944Y-115104589D01*
X154652560Y-115225000D01*
X154652560Y-115475000D01*
X154676944Y-115604589D01*
X154652560Y-115725000D01*
X154652560Y-115975000D01*
X154659043Y-116009454D01*
X154625000Y-116002560D01*
X154375000Y-116002560D01*
X154245411Y-116026944D01*
X154125000Y-116002560D01*
X153875000Y-116002560D01*
X153745411Y-116026944D01*
X153625000Y-116002560D01*
X153375000Y-116002560D01*
X153139683Y-116046838D01*
X152999273Y-116137190D01*
X152876890Y-116053569D01*
X152625000Y-116002560D01*
X152375000Y-116002560D01*
X152245411Y-116026944D01*
X152125000Y-116002560D01*
X151875000Y-116002560D01*
X151840546Y-116009043D01*
X151847440Y-115975000D01*
X151847440Y-115725000D01*
X151823056Y-115595411D01*
X151847440Y-115475000D01*
X151847440Y-115225000D01*
X151823056Y-115095411D01*
X151847440Y-114975000D01*
X151847440Y-114725000D01*
X151803162Y-114489683D01*
X151664090Y-114273559D01*
X151451890Y-114128569D01*
X151314880Y-114100824D01*
X151435317Y-114078162D01*
X151651441Y-113939090D01*
X151796431Y-113726890D01*
X151847440Y-113475000D01*
X151847440Y-113225000D01*
X151840957Y-113190546D01*
X151875000Y-113197440D01*
X152125000Y-113197440D01*
X152254589Y-113173056D01*
X152375000Y-113197440D01*
X152625000Y-113197440D01*
X152754589Y-113173056D01*
X152875000Y-113197440D01*
X153125000Y-113197440D01*
X153254589Y-113173056D01*
X153375000Y-113197440D01*
X153625000Y-113197440D01*
X153754589Y-113173056D01*
X153875000Y-113197440D01*
X154125000Y-113197440D01*
X154254589Y-113173056D01*
X154375000Y-113197440D01*
G36*
X177873000Y-110697394D02*
X176160197Y-112410197D01*
X176132334Y-112452211D01*
X176123000Y-112500000D01*
X176123000Y-115447394D01*
X175947394Y-115623000D01*
X171302606Y-115623000D01*
X171127000Y-115447394D01*
X171127000Y-111302606D01*
X171302606Y-111127000D01*
X173000000Y-111127000D01*
X173049410Y-111116994D01*
X173089803Y-111089803D01*
X175339803Y-108839803D01*
X175367666Y-108797789D01*
X175377000Y-108750000D01*
X175377000Y-107627000D01*
X177873000Y-107627000D01*
X177873000Y-110697394D01*
X177873000Y-110697394D01*
G37*
X177873000Y-110697394D02*
X176160197Y-112410197D01*
X176132334Y-112452211D01*
X176123000Y-112500000D01*
X176123000Y-115447394D01*
X175947394Y-115623000D01*
X171302606Y-115623000D01*
X171127000Y-115447394D01*
X171127000Y-111302606D01*
X171302606Y-111127000D01*
X173000000Y-111127000D01*
X173049410Y-111116994D01*
X173089803Y-111089803D01*
X175339803Y-108839803D01*
X175367666Y-108797789D01*
X175377000Y-108750000D01*
X175377000Y-107627000D01*
X177873000Y-107627000D01*
X177873000Y-110697394D01*
G36*
X187488338Y-98821046D02*
X187902333Y-99097669D01*
X188178953Y-99511660D01*
X188290000Y-100069931D01*
X188290000Y-138930069D01*
X188178953Y-139488340D01*
X187902333Y-139902331D01*
X187488338Y-140178954D01*
X186930069Y-140290000D01*
X180377000Y-140290000D01*
X180377000Y-138393109D01*
X184014657Y-138393109D01*
X184316218Y-139122943D01*
X184874120Y-139681819D01*
X185603427Y-139984654D01*
X186393109Y-139985343D01*
X187122943Y-139683782D01*
X187681819Y-139125880D01*
X187984654Y-138396573D01*
X187985343Y-137606891D01*
X187683782Y-136877057D01*
X187125880Y-136318181D01*
X186396573Y-136015346D01*
X185606891Y-136014657D01*
X184877057Y-136316218D01*
X184318181Y-136874120D01*
X184015346Y-137603427D01*
X184014657Y-138393109D01*
X180377000Y-138393109D01*
X180377000Y-133052606D01*
X181552606Y-131877000D01*
X182750000Y-131877000D01*
X182799410Y-131866994D01*
X182839803Y-131839803D01*
X184339803Y-130339803D01*
X184367666Y-130297789D01*
X184377000Y-130250000D01*
X184377000Y-105750000D01*
X184366994Y-105700590D01*
X184339803Y-105660197D01*
X182589803Y-103910197D01*
X182547789Y-103882334D01*
X182500000Y-103873000D01*
X175052606Y-103873000D01*
X172589803Y-101410197D01*
X172564037Y-101393109D01*
X184014657Y-101393109D01*
X184316218Y-102122943D01*
X184874120Y-102681819D01*
X185603427Y-102984654D01*
X186393109Y-102985343D01*
X187122943Y-102683782D01*
X187681819Y-102125880D01*
X187984654Y-101396573D01*
X187985343Y-100606891D01*
X187683782Y-99877057D01*
X187125880Y-99318181D01*
X186396573Y-99015346D01*
X185606891Y-99014657D01*
X184877057Y-99316218D01*
X184318181Y-99874120D01*
X184015346Y-100603427D01*
X184014657Y-101393109D01*
X172564037Y-101393109D01*
X172547789Y-101382334D01*
X172500000Y-101373000D01*
X163377000Y-101373000D01*
X163377000Y-98710000D01*
X186930069Y-98710000D01*
X187488338Y-98821046D01*
X187488338Y-98821046D01*
G37*
X187488338Y-98821046D02*
X187902333Y-99097669D01*
X188178953Y-99511660D01*
X188290000Y-100069931D01*
X188290000Y-138930069D01*
X188178953Y-139488340D01*
X187902333Y-139902331D01*
X187488338Y-140178954D01*
X186930069Y-140290000D01*
X180377000Y-140290000D01*
X180377000Y-138393109D01*
X184014657Y-138393109D01*
X184316218Y-139122943D01*
X184874120Y-139681819D01*
X185603427Y-139984654D01*
X186393109Y-139985343D01*
X187122943Y-139683782D01*
X187681819Y-139125880D01*
X187984654Y-138396573D01*
X187985343Y-137606891D01*
X187683782Y-136877057D01*
X187125880Y-136318181D01*
X186396573Y-136015346D01*
X185606891Y-136014657D01*
X184877057Y-136316218D01*
X184318181Y-136874120D01*
X184015346Y-137603427D01*
X184014657Y-138393109D01*
X180377000Y-138393109D01*
X180377000Y-133052606D01*
X181552606Y-131877000D01*
X182750000Y-131877000D01*
X182799410Y-131866994D01*
X182839803Y-131839803D01*
X184339803Y-130339803D01*
X184367666Y-130297789D01*
X184377000Y-130250000D01*
X184377000Y-105750000D01*
X184366994Y-105700590D01*
X184339803Y-105660197D01*
X182589803Y-103910197D01*
X182547789Y-103882334D01*
X182500000Y-103873000D01*
X175052606Y-103873000D01*
X172589803Y-101410197D01*
X172564037Y-101393109D01*
X184014657Y-101393109D01*
X184316218Y-102122943D01*
X184874120Y-102681819D01*
X185603427Y-102984654D01*
X186393109Y-102985343D01*
X187122943Y-102683782D01*
X187681819Y-102125880D01*
X187984654Y-101396573D01*
X187985343Y-100606891D01*
X187683782Y-99877057D01*
X187125880Y-99318181D01*
X186396573Y-99015346D01*
X185606891Y-99014657D01*
X184877057Y-99316218D01*
X184318181Y-99874120D01*
X184015346Y-100603427D01*
X184014657Y-101393109D01*
X172564037Y-101393109D01*
X172547789Y-101382334D01*
X172500000Y-101373000D01*
X163377000Y-101373000D01*
X163377000Y-98710000D01*
X186930069Y-98710000D01*
X187488338Y-98821046D01*
G36*
X133873000Y-100697394D02*
X131197394Y-103373000D01*
X124127000Y-103373000D01*
X124127000Y-98710000D01*
X133873000Y-98710000D01*
X133873000Y-100697394D01*
X133873000Y-100697394D01*
G37*
X133873000Y-100697394D02*
X131197394Y-103373000D01*
X124127000Y-103373000D01*
X124127000Y-98710000D01*
X133873000Y-98710000D01*
X133873000Y-100697394D01*
M02*
