G04 #@! TF.FileFunction,Legend,Bot*
%FSLAX46Y46*%
G04 Gerber Fmt 4.6, Leading zero omitted, Abs format (unit mm)*
G04 Created by KiCad (PCBNEW 4.0.5+dfsg1-4) date Mon Feb 19 23:39:44 2018*
%MOMM*%
%LPD*%
G01*
G04 APERTURE LIST*
%ADD10C,0.100000*%
%ADD11C,0.150000*%
G04 APERTURE END LIST*
D10*
D11*
X152975000Y-122250000D02*
X152975000Y-120250000D01*
X155025000Y-120250000D02*
X155025000Y-122250000D01*
X160000000Y-116600000D02*
X159000000Y-116600000D01*
X159000000Y-114900000D02*
X160000000Y-114900000D01*
X146500000Y-114900000D02*
X147500000Y-114900000D01*
X147500000Y-116600000D02*
X146500000Y-116600000D01*
X175800000Y-136150000D02*
X181600000Y-136150000D01*
X175800000Y-132850000D02*
X181600000Y-132850000D01*
X175800000Y-136150000D02*
X175800000Y-132850000D01*
X175850000Y-140150000D02*
X181650000Y-140150000D01*
X175850000Y-136850000D02*
X181650000Y-136850000D01*
X175850000Y-140150000D02*
X175850000Y-136850000D01*
X155850000Y-106075000D02*
X154850000Y-106075000D01*
X154850000Y-107425000D02*
X155850000Y-107425000D01*
X151650000Y-106075000D02*
X150650000Y-106075000D01*
X150650000Y-107425000D02*
X151650000Y-107425000D01*
X159650000Y-120925000D02*
X160650000Y-120925000D01*
X160650000Y-119575000D02*
X159650000Y-119575000D01*
X160650000Y-121575000D02*
X159650000Y-121575000D01*
X159650000Y-122925000D02*
X160650000Y-122925000D01*
X146850000Y-119075000D02*
X145850000Y-119075000D01*
X145850000Y-120425000D02*
X146850000Y-120425000D01*
X145850000Y-123175000D02*
X146850000Y-123175000D01*
X146850000Y-121825000D02*
X145850000Y-121825000D01*
X152057143Y-121083334D02*
X152104762Y-121035715D01*
X152152381Y-120892858D01*
X152152381Y-120797620D01*
X152104762Y-120654762D01*
X152009524Y-120559524D01*
X151914286Y-120511905D01*
X151723810Y-120464286D01*
X151580952Y-120464286D01*
X151390476Y-120511905D01*
X151295238Y-120559524D01*
X151200000Y-120654762D01*
X151152381Y-120797620D01*
X151152381Y-120892858D01*
X151200000Y-121035715D01*
X151247619Y-121083334D01*
X151152381Y-121988096D02*
X151152381Y-121511905D01*
X151628571Y-121464286D01*
X151580952Y-121511905D01*
X151533333Y-121607143D01*
X151533333Y-121845239D01*
X151580952Y-121940477D01*
X151628571Y-121988096D01*
X151723810Y-122035715D01*
X151961905Y-122035715D01*
X152057143Y-121988096D01*
X152104762Y-121940477D01*
X152152381Y-121845239D01*
X152152381Y-121607143D01*
X152104762Y-121511905D01*
X152057143Y-121464286D01*
X162666666Y-116107143D02*
X162714285Y-116154762D01*
X162857142Y-116202381D01*
X162952380Y-116202381D01*
X163095238Y-116154762D01*
X163190476Y-116059524D01*
X163238095Y-115964286D01*
X163285714Y-115773810D01*
X163285714Y-115630952D01*
X163238095Y-115440476D01*
X163190476Y-115345238D01*
X163095238Y-115250000D01*
X162952380Y-115202381D01*
X162857142Y-115202381D01*
X162714285Y-115250000D01*
X162666666Y-115297619D01*
X162190476Y-116202381D02*
X162000000Y-116202381D01*
X161904761Y-116154762D01*
X161857142Y-116107143D01*
X161761904Y-115964286D01*
X161714285Y-115773810D01*
X161714285Y-115392857D01*
X161761904Y-115297619D01*
X161809523Y-115250000D01*
X161904761Y-115202381D01*
X162095238Y-115202381D01*
X162190476Y-115250000D01*
X162238095Y-115297619D01*
X162285714Y-115392857D01*
X162285714Y-115630952D01*
X162238095Y-115726190D01*
X162190476Y-115773810D01*
X162095238Y-115821429D01*
X161904761Y-115821429D01*
X161809523Y-115773810D01*
X161761904Y-115726190D01*
X161714285Y-115630952D01*
X146642857Y-114607143D02*
X146690476Y-114654762D01*
X146833333Y-114702381D01*
X146928571Y-114702381D01*
X147071429Y-114654762D01*
X147166667Y-114559524D01*
X147214286Y-114464286D01*
X147261905Y-114273810D01*
X147261905Y-114130952D01*
X147214286Y-113940476D01*
X147166667Y-113845238D01*
X147071429Y-113750000D01*
X146928571Y-113702381D01*
X146833333Y-113702381D01*
X146690476Y-113750000D01*
X146642857Y-113797619D01*
X145690476Y-114702381D02*
X146261905Y-114702381D01*
X145976191Y-114702381D02*
X145976191Y-113702381D01*
X146071429Y-113845238D01*
X146166667Y-113940476D01*
X146261905Y-113988095D01*
X144785714Y-113702381D02*
X145261905Y-113702381D01*
X145309524Y-114178571D01*
X145261905Y-114130952D01*
X145166667Y-114083333D01*
X144928571Y-114083333D01*
X144833333Y-114130952D01*
X144785714Y-114178571D01*
X144738095Y-114273810D01*
X144738095Y-114511905D01*
X144785714Y-114607143D01*
X144833333Y-114654762D01*
X144928571Y-114702381D01*
X145166667Y-114702381D01*
X145261905Y-114654762D01*
X145309524Y-114607143D01*
X175357143Y-134107143D02*
X175404762Y-134059524D01*
X175452381Y-133916667D01*
X175452381Y-133821429D01*
X175404762Y-133678571D01*
X175309524Y-133583333D01*
X175214286Y-133535714D01*
X175023810Y-133488095D01*
X174880952Y-133488095D01*
X174690476Y-133535714D01*
X174595238Y-133583333D01*
X174500000Y-133678571D01*
X174452381Y-133821429D01*
X174452381Y-133916667D01*
X174500000Y-134059524D01*
X174547619Y-134107143D01*
X174547619Y-134488095D02*
X174500000Y-134535714D01*
X174452381Y-134630952D01*
X174452381Y-134869048D01*
X174500000Y-134964286D01*
X174547619Y-135011905D01*
X174642857Y-135059524D01*
X174738095Y-135059524D01*
X174880952Y-135011905D01*
X175452381Y-134440476D01*
X175452381Y-135059524D01*
X174547619Y-135440476D02*
X174500000Y-135488095D01*
X174452381Y-135583333D01*
X174452381Y-135821429D01*
X174500000Y-135916667D01*
X174547619Y-135964286D01*
X174642857Y-136011905D01*
X174738095Y-136011905D01*
X174880952Y-135964286D01*
X175452381Y-135392857D01*
X175452381Y-136011905D01*
X175357143Y-137857143D02*
X175404762Y-137809524D01*
X175452381Y-137666667D01*
X175452381Y-137571429D01*
X175404762Y-137428571D01*
X175309524Y-137333333D01*
X175214286Y-137285714D01*
X175023810Y-137238095D01*
X174880952Y-137238095D01*
X174690476Y-137285714D01*
X174595238Y-137333333D01*
X174500000Y-137428571D01*
X174452381Y-137571429D01*
X174452381Y-137666667D01*
X174500000Y-137809524D01*
X174547619Y-137857143D01*
X174547619Y-138238095D02*
X174500000Y-138285714D01*
X174452381Y-138380952D01*
X174452381Y-138619048D01*
X174500000Y-138714286D01*
X174547619Y-138761905D01*
X174642857Y-138809524D01*
X174738095Y-138809524D01*
X174880952Y-138761905D01*
X175452381Y-138190476D01*
X175452381Y-138809524D01*
X174452381Y-139714286D02*
X174452381Y-139238095D01*
X174928571Y-139190476D01*
X174880952Y-139238095D01*
X174833333Y-139333333D01*
X174833333Y-139571429D01*
X174880952Y-139666667D01*
X174928571Y-139714286D01*
X175023810Y-139761905D01*
X175261905Y-139761905D01*
X175357143Y-139714286D01*
X175404762Y-139666667D01*
X175452381Y-139571429D01*
X175452381Y-139333333D01*
X175404762Y-139238095D01*
X175357143Y-139190476D01*
X155516666Y-109102381D02*
X155850000Y-108626190D01*
X156088095Y-109102381D02*
X156088095Y-108102381D01*
X155707142Y-108102381D01*
X155611904Y-108150000D01*
X155564285Y-108197619D01*
X155516666Y-108292857D01*
X155516666Y-108435714D01*
X155564285Y-108530952D01*
X155611904Y-108578571D01*
X155707142Y-108626190D01*
X156088095Y-108626190D01*
X154564285Y-109102381D02*
X155135714Y-109102381D01*
X154850000Y-109102381D02*
X154850000Y-108102381D01*
X154945238Y-108245238D01*
X155040476Y-108340476D01*
X155135714Y-108388095D01*
X151316666Y-109102381D02*
X151650000Y-108626190D01*
X151888095Y-109102381D02*
X151888095Y-108102381D01*
X151507142Y-108102381D01*
X151411904Y-108150000D01*
X151364285Y-108197619D01*
X151316666Y-108292857D01*
X151316666Y-108435714D01*
X151364285Y-108530952D01*
X151411904Y-108578571D01*
X151507142Y-108626190D01*
X151888095Y-108626190D01*
X150935714Y-108197619D02*
X150888095Y-108150000D01*
X150792857Y-108102381D01*
X150554761Y-108102381D01*
X150459523Y-108150000D01*
X150411904Y-108197619D01*
X150364285Y-108292857D01*
X150364285Y-108388095D01*
X150411904Y-108530952D01*
X150983333Y-109102381D01*
X150364285Y-109102381D01*
X163416666Y-120702381D02*
X163750000Y-120226190D01*
X163988095Y-120702381D02*
X163988095Y-119702381D01*
X163607142Y-119702381D01*
X163511904Y-119750000D01*
X163464285Y-119797619D01*
X163416666Y-119892857D01*
X163416666Y-120035714D01*
X163464285Y-120130952D01*
X163511904Y-120178571D01*
X163607142Y-120226190D01*
X163988095Y-120226190D01*
X162845238Y-120130952D02*
X162940476Y-120083333D01*
X162988095Y-120035714D01*
X163035714Y-119940476D01*
X163035714Y-119892857D01*
X162988095Y-119797619D01*
X162940476Y-119750000D01*
X162845238Y-119702381D01*
X162654761Y-119702381D01*
X162559523Y-119750000D01*
X162511904Y-119797619D01*
X162464285Y-119892857D01*
X162464285Y-119940476D01*
X162511904Y-120035714D01*
X162559523Y-120083333D01*
X162654761Y-120130952D01*
X162845238Y-120130952D01*
X162940476Y-120178571D01*
X162988095Y-120226190D01*
X163035714Y-120321429D01*
X163035714Y-120511905D01*
X162988095Y-120607143D01*
X162940476Y-120654762D01*
X162845238Y-120702381D01*
X162654761Y-120702381D01*
X162559523Y-120654762D01*
X162511904Y-120607143D01*
X162464285Y-120511905D01*
X162464285Y-120321429D01*
X162511904Y-120226190D01*
X162559523Y-120178571D01*
X162654761Y-120130952D01*
X160316666Y-124602381D02*
X160650000Y-124126190D01*
X160888095Y-124602381D02*
X160888095Y-123602381D01*
X160507142Y-123602381D01*
X160411904Y-123650000D01*
X160364285Y-123697619D01*
X160316666Y-123792857D01*
X160316666Y-123935714D01*
X160364285Y-124030952D01*
X160411904Y-124078571D01*
X160507142Y-124126190D01*
X160888095Y-124126190D01*
X159840476Y-124602381D02*
X159650000Y-124602381D01*
X159554761Y-124554762D01*
X159507142Y-124507143D01*
X159411904Y-124364286D01*
X159364285Y-124173810D01*
X159364285Y-123792857D01*
X159411904Y-123697619D01*
X159459523Y-123650000D01*
X159554761Y-123602381D01*
X159745238Y-123602381D01*
X159840476Y-123650000D01*
X159888095Y-123697619D01*
X159935714Y-123792857D01*
X159935714Y-124030952D01*
X159888095Y-124126190D01*
X159840476Y-124173810D01*
X159745238Y-124221429D01*
X159554761Y-124221429D01*
X159459523Y-124173810D01*
X159411904Y-124126190D01*
X159364285Y-124030952D01*
X146992857Y-118952381D02*
X147326191Y-118476190D01*
X147564286Y-118952381D02*
X147564286Y-117952381D01*
X147183333Y-117952381D01*
X147088095Y-118000000D01*
X147040476Y-118047619D01*
X146992857Y-118142857D01*
X146992857Y-118285714D01*
X147040476Y-118380952D01*
X147088095Y-118428571D01*
X147183333Y-118476190D01*
X147564286Y-118476190D01*
X146040476Y-118952381D02*
X146611905Y-118952381D01*
X146326191Y-118952381D02*
X146326191Y-117952381D01*
X146421429Y-118095238D01*
X146516667Y-118190476D01*
X146611905Y-118238095D01*
X145659524Y-118047619D02*
X145611905Y-118000000D01*
X145516667Y-117952381D01*
X145278571Y-117952381D01*
X145183333Y-118000000D01*
X145135714Y-118047619D01*
X145088095Y-118142857D01*
X145088095Y-118238095D01*
X145135714Y-118380952D01*
X145707143Y-118952381D01*
X145088095Y-118952381D01*
X146992857Y-124202381D02*
X147326191Y-123726190D01*
X147564286Y-124202381D02*
X147564286Y-123202381D01*
X147183333Y-123202381D01*
X147088095Y-123250000D01*
X147040476Y-123297619D01*
X146992857Y-123392857D01*
X146992857Y-123535714D01*
X147040476Y-123630952D01*
X147088095Y-123678571D01*
X147183333Y-123726190D01*
X147564286Y-123726190D01*
X146040476Y-124202381D02*
X146611905Y-124202381D01*
X146326191Y-124202381D02*
X146326191Y-123202381D01*
X146421429Y-123345238D01*
X146516667Y-123440476D01*
X146611905Y-123488095D01*
X145707143Y-123202381D02*
X145088095Y-123202381D01*
X145421429Y-123583333D01*
X145278571Y-123583333D01*
X145183333Y-123630952D01*
X145135714Y-123678571D01*
X145088095Y-123773810D01*
X145088095Y-124011905D01*
X145135714Y-124107143D01*
X145183333Y-124154762D01*
X145278571Y-124202381D01*
X145564286Y-124202381D01*
X145659524Y-124154762D01*
X145707143Y-124107143D01*
M02*
