M48
;DRILL file {KiCad 4.0.5+dfsg1-4} date Mon Feb 19 23:39:51 2018
;FORMAT={-:-/ absolute / metric / decimal}
FMAT,2
METRIC,TZ
T1C0.400
T2C1.016
T3C1.501
T4C2.000
T5C2.499
%
G90
G05
M71
T1
X123.5Y-123.
X129.75Y-123.
X137.25Y-119.75
X138.Y-115.
X138.25Y-107.75
X143.75Y-111.75
X143.75Y-117.25
X146.5Y-110.5
X147.5Y-121.25
X148.75Y-119.75
X149.75Y-113.375
X149.75Y-114.725
X149.75Y-116.
X150.Y-104.5
X150.75Y-111.75
X151.858Y-109.721
X154.Y-109.75
X154.625Y-111.054
X156.171Y-111.671
X156.5Y-116.
X156.75Y-113.375
X156.75Y-114.725
X158.5Y-118.75
X161.Y-111.5
X163.25Y-109.375
X163.25Y-112.25
X163.5Y-120.25
X169.5Y-116.
X170.25Y-110.
T2
X106.5Y-110.75
X109.04Y-110.75
X119.Y-128.46
X119.Y-131.
X121.54Y-128.46
X121.54Y-131.
X124.08Y-128.46
X124.08Y-131.
X126.62Y-128.46
X126.62Y-131.
X129.16Y-128.46
X129.16Y-131.
X131.7Y-128.46
X131.7Y-131.
X134.24Y-128.46
X134.24Y-131.
X136.78Y-128.46
X136.78Y-131.
X139.32Y-128.46
X139.32Y-131.
X141.86Y-128.46
X141.86Y-131.
X144.4Y-128.46
X144.4Y-131.
X146.94Y-128.46
X146.94Y-131.
X149.48Y-128.46
X149.48Y-131.
X152.02Y-128.46
X152.02Y-131.
X154.56Y-128.46
X154.56Y-131.
X157.1Y-128.46
X157.1Y-131.
T3
X91.4Y-103.4
X113.401Y-103.4
T4
X130.75Y-102.
X173.75Y-134.5
X173.75Y-138.5
X180.5Y-101.5
X186.Y-133.75
T5
X93.Y-112.
X93.Y-120.
X93.Y-125.
X93.Y-132.5
X99.35Y-112.
X99.35Y-120.
X99.35Y-125.
X99.35Y-132.5
T0
M30
